<svg width="300" height="300" viewBox="0 0 300 300" fill="none" xmlns="http://www.w3.org/2000/svg">
<g clip-path="url(#clip0_1_2)">
<rect width="300" height="300" fill="white"/>
<path d="M14.2358 29.8466V27.2898L22.1619 24.1151V26.7997L17.1122 28.5469L17.1974 28.419V28.7173L17.1122 28.5895L22.1619 30.3366V33.0213L14.2358 29.8466ZM27.0865 28.3977V33H24.1461V22.0909H26.9799V26.3736H27.0652C27.2498 25.8516 27.557 25.445 27.9867 25.1538C28.4164 24.859 28.9331 24.7116 29.5368 24.7116C30.1156 24.7116 30.6181 24.843 31.0442 25.1058C31.4739 25.3686 31.8059 25.7308 32.0403 26.1925C32.2782 26.6541 32.3954 27.1832 32.3919 27.7798V33H29.4515V28.3977C29.4551 27.9929 29.3539 27.6751 29.1479 27.4442C28.9455 27.2134 28.6561 27.098 28.2797 27.098C28.0417 27.098 27.8322 27.1513 27.6511 27.2578C27.4735 27.3608 27.335 27.5099 27.2356 27.7053C27.1397 27.897 27.09 28.1278 27.0865 28.3977ZM38.7227 24.8182V26.9489H33.332V24.8182H38.7227ZM34.3761 22.858H37.3164V30.3686C37.3164 30.4822 37.3359 30.5781 37.375 30.6562C37.4141 30.7308 37.4744 30.7876 37.5561 30.8267C37.6378 30.8622 37.7425 30.88 37.8704 30.88C37.9592 30.88 38.0621 30.8693 38.1793 30.848C38.3001 30.8267 38.3888 30.8089 38.4457 30.7947L38.8718 32.8615C38.7404 32.9006 38.5522 32.9485 38.3072 33.0053C38.0657 33.0621 37.7781 33.0994 37.4442 33.1172C36.7695 33.1527 36.2031 33.0835 35.745 32.9094C35.2869 32.7319 34.9425 32.4531 34.7116 32.0732C34.4808 31.6932 34.369 31.2173 34.3761 30.6456V22.858ZM39.9225 33V24.8182H42.7137V26.3736H42.7989C42.9694 25.8622 43.2606 25.4574 43.6725 25.1591C44.0844 24.8608 44.5745 24.7116 45.1427 24.7116C45.718 24.7116 46.2133 24.8643 46.6288 25.1697C47.0443 25.4716 47.2947 25.8729 47.3799 26.3736H47.4651C47.6036 25.8729 47.8983 25.4716 48.3493 25.1697C48.8003 24.8643 49.3295 24.7116 49.9367 24.7116C50.7215 24.7116 51.3572 24.9638 51.8437 25.468C52.3337 25.9723 52.5787 26.6435 52.5787 27.4815V33H49.6384V28.2273C49.6384 27.8686 49.5479 27.5881 49.3667 27.3857C49.1856 27.1797 48.9424 27.0767 48.637 27.0767C48.3351 27.0767 48.0954 27.1797 47.9179 27.3857C47.7439 27.5881 47.6569 27.8686 47.6569 28.2273V33H44.8444V28.2273C44.8444 27.8686 44.7538 27.5881 44.5727 27.3857C44.3916 27.1797 44.1483 27.0767 43.843 27.0767C43.6405 27.0767 43.4665 27.1229 43.3209 27.2152C43.1753 27.3075 43.0617 27.4407 42.98 27.6147C42.9019 27.7852 42.8628 27.9893 42.8628 28.2273V33H39.9225ZM56.9693 22.0909V33H54.0289V22.0909H56.9693ZM66.8836 29.8466L58.9575 33.0213V30.3366L64.0072 28.5895L63.922 28.7173V28.419L64.0072 28.5469L58.9575 26.7997V24.1151L66.8836 27.2898V29.8466ZM23.2006 65.8466V63.2898L31.1268 60.1151V62.7997L26.0771 64.5469L26.1623 64.419V64.7173L26.0771 64.5895L31.1268 66.3366V69.0213L23.2006 65.8466ZM36.0513 64.3977V69H33.111V58.0909H35.9448V62.3736H36.03C36.2147 61.8516 36.5218 61.445 36.9515 61.1538C37.3812 60.859 37.8979 60.7116 38.5016 60.7116C39.0804 60.7116 39.5829 60.843 40.0091 61.1058C40.4387 61.3686 40.7708 61.7308 41.0051 62.1925C41.2431 62.6541 41.3603 63.1832 41.3567 63.7798V69H38.4164V64.3977C38.4199 63.9929 38.3187 63.6751 38.1127 63.4442C37.9103 63.2134 37.6209 63.098 37.2445 63.098C37.0066 63.098 36.7971 63.1513 36.6159 63.2578C36.4384 63.3608 36.2999 63.5099 36.2005 63.7053C36.1046 63.897 36.0549 64.1278 36.0513 64.3977ZM46.7287 69.1491C45.8551 69.1491 45.1023 68.9822 44.4702 68.6484C43.8416 68.3111 43.3569 67.8281 43.016 67.1996C42.6786 66.5675 42.5099 65.8111 42.5099 64.9304C42.5099 64.0852 42.6804 63.3466 43.0213 62.7145C43.3622 62.0824 43.8434 61.5906 44.4648 61.239C45.0863 60.8874 45.8196 60.7116 46.6648 60.7116C47.2827 60.7116 47.842 60.8075 48.3427 60.9993C48.8434 61.1911 49.2713 61.4698 49.6264 61.8356C49.9815 62.1978 50.255 62.6381 50.4467 63.1566C50.6385 63.6751 50.7344 64.2592 50.7344 64.9091V65.5909H43.4261V63.9716H48.0284C48.0249 63.7372 47.9645 63.5312 47.8473 63.3537C47.7337 63.1726 47.5792 63.0323 47.3839 62.9329C47.1921 62.8299 46.9737 62.7784 46.7287 62.7784C46.4908 62.7784 46.2724 62.8299 46.0735 62.9329C45.8746 63.0323 45.7148 63.1708 45.5941 63.3484C45.4769 63.5259 45.4148 63.7337 45.4077 63.9716V65.7188C45.4077 65.9815 45.4627 66.2159 45.5728 66.4219C45.6829 66.6278 45.8409 66.7894 46.0469 66.9066C46.2528 67.0238 46.5014 67.0824 46.7926 67.0824C46.995 67.0824 47.1797 67.054 47.3466 66.9972C47.517 66.9403 47.6626 66.8587 47.7834 66.7521C47.9041 66.642 47.9929 66.5107 48.0497 66.358H50.7344C50.642 66.9261 50.4237 67.4197 50.0792 67.8388C49.7347 68.2543 49.2784 68.5774 48.7102 68.8082C48.1456 69.0355 47.4851 69.1491 46.7287 69.1491ZM54.214 69.1278C53.692 69.1278 53.2304 69.0426 52.8291 68.8722C52.4314 68.6982 52.1189 68.4354 51.8916 68.0838C51.6643 67.7322 51.5507 67.2848 51.5507 66.7415C51.5507 66.294 51.627 65.9123 51.7797 65.5962C51.9324 65.2766 52.1455 65.0156 52.4189 64.8132C52.6924 64.6108 53.0102 64.4563 53.3724 64.3498C53.7382 64.2433 54.1324 64.174 54.555 64.142C55.0131 64.1065 55.3806 64.0639 55.6576 64.0142C55.9381 63.9609 56.1405 63.8881 56.2648 63.7958C56.3891 63.6999 56.4513 63.5739 56.4513 63.4176V63.3963C56.4513 63.1832 56.3696 63.0199 56.2062 62.9062C56.0429 62.7926 55.8334 62.7358 55.5777 62.7358C55.2971 62.7358 55.0681 62.7979 54.8905 62.9222C54.7165 63.043 54.6118 63.2294 54.5763 63.4815H51.8703C51.9058 62.9844 52.0638 62.5263 52.3444 62.1072C52.6285 61.6847 53.0422 61.3473 53.5855 61.0952C54.1288 60.8395 54.8071 60.7116 55.6203 60.7116C56.2062 60.7116 56.7318 60.7809 57.197 60.9194C57.6622 61.0543 58.0582 61.2443 58.3849 61.4893C58.7116 61.7308 58.9601 62.0149 59.1306 62.3416C59.3046 62.6648 59.3916 63.0163 59.3916 63.3963V69H56.643V67.8494H56.5791C56.4157 68.1548 56.2169 68.4016 55.9825 68.5898C55.7517 68.7781 55.4871 68.9148 55.1888 69C54.8941 69.0852 54.5692 69.1278 54.214 69.1278ZM55.1729 67.2741C55.3966 67.2741 55.6061 67.228 55.8014 67.1357C56.0003 67.0433 56.1618 66.9102 56.2861 66.7362C56.4104 66.5621 56.4726 66.3509 56.4726 66.1023V65.4205C56.3944 65.4524 56.311 65.4826 56.2222 65.511C56.137 65.5394 56.0447 65.5661 55.9452 65.5909C55.8493 65.6158 55.7464 65.6388 55.6363 65.6602C55.5297 65.6815 55.4179 65.701 55.3007 65.7188C55.0734 65.7543 54.887 65.8129 54.7414 65.8945C54.5993 65.9727 54.4928 66.0703 54.4218 66.1875C54.3543 66.3011 54.3206 66.429 54.3206 66.571C54.3206 66.7983 54.4005 66.9723 54.5603 67.093C54.7201 67.2138 54.9243 67.2741 55.1729 67.2741ZM63.7582 69.1065C63.1758 69.1065 62.6396 68.9538 62.1495 68.6484C61.663 68.343 61.2724 67.8796 60.9776 67.2582C60.6864 66.6367 60.5408 65.8537 60.5408 64.9091C60.5408 63.9219 60.6935 63.1193 60.9989 62.5014C61.3079 61.8835 61.7056 61.4308 62.1921 61.1431C62.6822 60.8555 63.1971 60.7116 63.7369 60.7116C64.1417 60.7116 64.4968 60.7827 64.8022 60.9247C65.1076 61.0632 65.3633 61.2496 65.5692 61.484C65.7752 61.7148 65.9315 61.9687 66.038 62.2457H66.0806V58.0909H69.021V69H66.1019V67.6577H66.038C65.9244 67.9347 65.761 68.1832 65.5479 68.4034C65.3384 68.62 65.0827 68.7923 64.7809 68.9201C64.4826 69.0444 64.1417 69.1065 63.7582 69.1065ZM64.8448 66.848C65.1147 66.848 65.3455 66.7699 65.5373 66.6136C65.7326 66.4538 65.8817 66.2301 65.9847 65.9425C66.0913 65.6513 66.1445 65.3068 66.1445 64.9091C66.1445 64.5043 66.0913 64.158 65.9847 63.8704C65.8817 63.5792 65.7326 63.3572 65.5373 63.2045C65.3455 63.0483 65.1147 62.9702 64.8448 62.9702C64.5749 62.9702 64.3441 63.0483 64.1523 63.2045C63.9641 63.3572 63.8185 63.5792 63.7156 63.8704C63.6161 64.158 63.5664 64.5043 63.5664 64.9091C63.5664 65.3139 63.6161 65.6619 63.7156 65.9531C63.8185 66.2408 63.9641 66.4627 64.1523 66.619C64.3441 66.7717 64.5749 66.848 64.8448 66.848ZM78.8807 65.8466L70.9545 69.0213V66.3366L76.0043 64.5895L75.919 64.7173V64.419L76.0043 64.5469L70.9545 62.7997V60.1151L78.8807 63.2898V65.8466ZM32.1655 83.8466V81.2898L40.0916 78.1151V80.7997L35.0419 82.5469L35.1271 82.419V82.7173L35.0419 82.5895L40.0916 84.3366V87.0213L32.1655 83.8466ZM49.5545 81.4815H46.8485C46.8343 81.3146 46.7757 81.1708 46.6728 81.0501C46.5698 80.9293 46.4366 80.837 46.2733 80.7731C46.1135 80.7056 45.9359 80.6719 45.7406 80.6719C45.4885 80.6719 45.2718 80.718 45.0907 80.8104C44.9096 80.9027 44.8208 81.0341 44.8244 81.2045C44.8208 81.3253 44.8723 81.4371 44.9789 81.5401C45.089 81.6431 45.3002 81.723 45.6127 81.7798L47.2747 82.0781C48.1127 82.2308 48.736 82.4883 49.1444 82.8505C49.5563 83.2092 49.764 83.6903 49.7676 84.294C49.764 84.8764 49.59 85.3825 49.2456 85.8121C48.9047 86.2383 48.4377 86.5685 47.8446 86.8029C47.2551 87.0337 46.5822 87.1491 45.8258 87.1491C44.5758 87.1491 43.5975 86.8935 42.8908 86.3821C42.1877 85.8707 41.7953 85.196 41.7136 84.358H44.6326C44.6717 84.6172 44.7995 84.8178 45.0162 84.9599C45.2363 85.0984 45.5133 85.1676 45.8471 85.1676C46.117 85.1676 46.339 85.1214 46.513 85.0291C46.6905 84.9368 46.7811 84.8054 46.7846 84.6349C46.7811 84.4787 46.7029 84.3544 46.5502 84.2621C46.4011 84.1697 46.1667 84.0952 45.8471 84.0384L44.3983 83.7827C43.5637 83.6371 42.9387 83.3601 42.5233 82.9517C42.1078 82.5433 41.9018 82.0178 41.9054 81.375C41.9018 80.8068 42.051 80.3256 42.3528 79.9315C42.6582 79.5337 43.0932 79.2319 43.6578 79.0259C44.226 78.8164 44.899 78.7116 45.6767 78.7116C46.8592 78.7116 47.7914 78.9567 48.4732 79.4467C49.1586 79.9368 49.519 80.6151 49.5545 81.4815ZM55.7734 78.8182V80.9489H50.3828V78.8182H55.7734ZM51.4268 76.858H54.3672V84.3686C54.3672 84.4822 54.3867 84.5781 54.4258 84.6562C54.4648 84.7308 54.5252 84.7876 54.6069 84.8267C54.6886 84.8622 54.7933 84.88 54.9212 84.88C55.0099 84.88 55.1129 84.8693 55.2301 84.848C55.3509 84.8267 55.4396 84.8089 55.4964 84.7947L55.9226 86.8615C55.7912 86.9006 55.603 86.9485 55.358 87.0053C55.1165 87.0621 54.8288 87.0994 54.495 87.1172C53.8203 87.1527 53.2539 87.0835 52.7958 86.9094C52.3377 86.7319 51.9933 86.4531 51.7624 86.0732C51.5316 85.6932 51.4197 85.2173 51.4268 84.6456V76.858ZM58.7631 90.0682C58.4257 90.0682 58.1043 90.0415 57.7989 89.9883C57.4935 89.9386 57.2254 89.8693 56.9946 89.7805L57.6338 87.6925C57.8753 87.7777 58.0954 87.8327 58.2943 87.8576C58.4967 87.8825 58.6689 87.8683 58.811 87.815C58.9566 87.7617 59.0613 87.6605 59.1253 87.5114L59.1892 87.3622L56.3128 78.8182H59.3809L60.702 84.4858H60.7872L62.1295 78.8182H65.219L62.2361 87.6818C62.0869 88.1328 61.8703 88.5376 61.5862 88.8963C61.3057 89.2585 60.9363 89.5444 60.4782 89.7539C60.0202 89.9634 59.4484 90.0682 58.7631 90.0682ZM68.9956 76.0909V87H66.0553V76.0909H68.9956ZM74.4142 87.1491C73.5407 87.1491 72.7878 86.9822 72.1557 86.6484C71.5272 86.3111 71.0424 85.8281 70.7015 85.1996C70.3642 84.5675 70.1955 83.8111 70.1955 82.9304C70.1955 82.0852 70.3659 81.3466 70.7069 80.7145C71.0478 80.0824 71.5289 79.5906 72.1504 79.239C72.7718 78.8874 73.5051 78.7116 74.3503 78.7116C74.9682 78.7116 75.5275 78.8075 76.0282 78.9993C76.5289 79.1911 76.9569 79.4698 77.312 79.8356C77.6671 80.1978 77.9405 80.6381 78.1323 81.1566C78.324 81.6751 78.4199 82.2592 78.4199 82.9091V83.5909H71.1117V81.9716H75.714C75.7104 81.7372 75.65 81.5312 75.5328 81.3537C75.4192 81.1726 75.2647 81.0323 75.0694 80.9329C74.8777 80.8299 74.6593 80.7784 74.4142 80.7784C74.1763 80.7784 73.9579 80.8299 73.7591 80.9329C73.5602 81.0323 73.4004 81.1708 73.2797 81.3484C73.1625 81.5259 73.1003 81.7337 73.0932 81.9716V83.7188C73.0932 83.9815 73.1483 84.2159 73.2583 84.4219C73.3684 84.6278 73.5265 84.7894 73.7324 84.9066C73.9384 85.0238 74.187 85.0824 74.4782 85.0824C74.6806 85.0824 74.8652 85.054 75.0321 84.9972C75.2026 84.9403 75.3482 84.8587 75.4689 84.7521C75.5897 84.642 75.6784 84.5107 75.7353 84.358H78.4199C78.3276 84.9261 78.1092 85.4197 77.7647 85.8388C77.4203 86.2543 76.964 86.5774 76.3958 86.8082C75.8311 87.0355 75.1706 87.1491 74.4142 87.1491ZM88.036 83.8466L80.1098 87.0213V84.3366L85.1595 82.5895L85.0743 82.7173V82.419L85.1595 82.5469L80.1098 80.7997V78.1151L88.036 81.2898V83.8466ZM100.487 81.4815H97.7812C97.767 81.3146 97.7084 81.1708 97.6054 81.0501C97.5024 80.9293 97.3692 80.837 97.2059 80.7731C97.0461 80.7056 96.8685 80.6719 96.6732 80.6719C96.4211 80.6719 96.2045 80.718 96.0233 80.8104C95.8422 80.9027 95.7535 81.0341 95.757 81.2045C95.7535 81.3253 95.805 81.4371 95.9115 81.5401C96.0216 81.6431 96.2329 81.723 96.5454 81.7798L98.2073 82.0781C99.0454 82.2308 99.6686 82.4883 100.077 82.8505C100.489 83.2092 100.697 83.6903 100.7 84.294C100.697 84.8764 100.523 85.3825 100.178 85.8121C99.8373 86.2383 99.3703 86.5685 98.7773 86.8029C98.1878 87.0337 97.5148 87.1491 96.7584 87.1491C95.5084 87.1491 94.5301 86.8935 93.8234 86.3821C93.1203 85.8707 92.7279 85.196 92.6462 84.358H95.5653C95.6043 84.6172 95.7322 84.8178 95.9488 84.9599C96.1689 85.0984 96.4459 85.1676 96.7797 85.1676C97.0496 85.1676 97.2716 85.1214 97.4456 85.0291C97.6231 84.9368 97.7137 84.8054 97.7172 84.6349C97.7137 84.4787 97.6356 84.3544 97.4829 84.2621C97.3337 84.1697 97.0993 84.0952 96.7797 84.0384L95.3309 83.7827C94.4964 83.6371 93.8714 83.3601 93.4559 82.9517C93.0404 82.5433 92.8344 82.0178 92.838 81.375C92.8344 80.8068 92.9836 80.3256 93.2854 79.9315C93.5908 79.5337 94.0258 79.2319 94.5905 79.0259C95.1586 78.8164 95.8316 78.7116 96.6093 78.7116C97.7918 78.7116 98.724 78.9567 99.4058 79.4467C100.091 79.9368 100.452 80.6151 100.487 81.4815ZM105.769 87.1491C104.881 87.1491 104.121 86.9734 103.489 86.6218C102.857 86.2667 102.372 85.7731 102.035 85.141C101.697 84.5053 101.528 83.7685 101.528 82.9304C101.528 82.0923 101.697 81.3572 102.035 80.7251C102.372 80.0895 102.857 79.5959 103.489 79.2443C104.121 78.8892 104.881 78.7116 105.769 78.7116C106.656 78.7116 107.416 78.8892 108.048 79.2443C108.68 79.5959 109.165 80.0895 109.503 80.7251C109.84 81.3572 110.009 82.0923 110.009 82.9304C110.009 83.7685 109.84 84.5053 109.503 85.141C109.165 85.7731 108.68 86.2667 108.048 86.6218C107.416 86.9734 106.656 87.1491 105.769 87.1491ZM105.79 84.9759C106.038 84.9759 106.253 84.8924 106.434 84.7255C106.616 84.5586 106.756 84.3207 106.855 84.0117C106.955 83.7028 107.004 83.3352 107.004 82.9091C107.004 82.4794 106.955 82.1119 106.855 81.8065C106.756 81.4975 106.616 81.2596 106.434 81.0927C106.253 80.9258 106.038 80.8423 105.79 80.8423C105.527 80.8423 105.302 80.9258 105.113 81.0927C104.925 81.2596 104.781 81.4975 104.682 81.8065C104.582 82.1119 104.533 82.4794 104.533 82.9091C104.533 83.3352 104.582 83.7028 104.682 84.0117C104.781 84.3207 104.925 84.5586 105.113 84.7255C105.302 84.8924 105.527 84.9759 105.79 84.9759ZM111.202 87V78.8182H113.993V80.3736H114.078C114.249 79.8622 114.54 79.4574 114.952 79.1591C115.364 78.8608 115.854 78.7116 116.422 78.7116C116.997 78.7116 117.493 78.8643 117.908 79.1697C118.324 79.4716 118.574 79.8729 118.659 80.3736H118.744C118.883 79.8729 119.178 79.4716 119.629 79.1697C120.08 78.8643 120.609 78.7116 121.216 78.7116C122.001 78.7116 122.636 78.9638 123.123 79.468C123.613 79.9723 123.858 80.6435 123.858 81.4815V87H120.918V82.2273C120.918 81.8686 120.827 81.5881 120.646 81.3857C120.465 81.1797 120.222 81.0767 119.916 81.0767C119.614 81.0767 119.375 81.1797 119.197 81.3857C119.023 81.5881 118.936 81.8686 118.936 82.2273V87H116.124V82.2273C116.124 81.8686 116.033 81.5881 115.852 81.3857C115.671 81.1797 115.428 81.0767 115.122 81.0767C114.92 81.0767 114.746 81.1229 114.6 81.2152C114.455 81.3075 114.341 81.4407 114.259 81.6147C114.181 81.7852 114.142 81.9893 114.142 82.2273V87H111.202ZM129.229 87.1491C128.355 87.1491 127.602 86.9822 126.97 86.6484C126.342 86.3111 125.857 85.8281 125.516 85.1996C125.179 84.5675 125.01 83.8111 125.01 82.9304C125.01 82.0852 125.18 81.3466 125.521 80.7145C125.862 80.0824 126.343 79.5906 126.965 79.239C127.586 78.8874 128.32 78.7116 129.165 78.7116C129.783 78.7116 130.342 78.8075 130.843 78.9993C131.343 79.1911 131.771 79.4698 132.126 79.8356C132.482 80.1978 132.755 80.6381 132.947 81.1566C133.138 81.6751 133.234 82.2592 133.234 82.9091V83.5909H125.926V81.9716H130.528C130.525 81.7372 130.464 81.5312 130.347 81.3537C130.234 81.1726 130.079 81.0323 129.884 80.9329C129.692 80.8299 129.474 80.7784 129.229 80.7784C128.991 80.7784 128.772 80.8299 128.574 80.9329C128.375 81.0323 128.215 81.1708 128.094 81.3484C127.977 81.5259 127.915 81.7337 127.908 81.9716V83.7188C127.908 83.9815 127.963 84.2159 128.073 84.4219C128.183 84.6278 128.341 84.7894 128.547 84.9066C128.753 85.0238 129.001 85.0824 129.293 85.0824C129.495 85.0824 129.68 85.054 129.847 84.9972C130.017 84.9403 130.163 84.8587 130.283 84.7521C130.404 84.642 130.493 84.5107 130.55 84.358H133.234C133.142 84.9261 132.924 85.4197 132.579 85.8388C132.235 86.2543 131.778 86.5774 131.21 86.8082C130.646 87.0355 129.985 87.1491 129.229 87.1491ZM141.364 87.1491C140.476 87.1491 139.717 86.9734 139.084 86.6218C138.452 86.2667 137.968 85.7731 137.63 85.141C137.293 84.5053 137.124 83.7685 137.124 82.9304C137.124 82.0923 137.293 81.3572 137.63 80.7251C137.968 80.0895 138.452 79.5959 139.084 79.2443C139.717 78.8892 140.476 78.7116 141.364 78.7116C142.167 78.7116 142.861 78.8572 143.447 79.1484C144.036 79.4361 144.493 79.8445 144.816 80.3736C145.139 80.8991 145.302 81.517 145.306 82.2273H142.579C142.54 81.7976 142.415 81.4709 142.206 81.2472C142 81.0199 141.734 80.9062 141.407 80.9062C141.151 80.9062 140.927 80.9808 140.736 81.13C140.544 81.2756 140.395 81.4975 140.288 81.7958C140.182 82.0906 140.128 82.4616 140.128 82.9091C140.128 83.3565 140.182 83.7294 140.288 84.0277C140.395 84.3224 140.544 84.5444 140.736 84.6935C140.927 84.8391 141.151 84.9119 141.407 84.9119C141.623 84.9119 141.815 84.8622 141.982 84.7628C142.149 84.6598 142.284 84.5107 142.387 84.3153C142.494 84.1165 142.557 83.875 142.579 83.5909H145.306C145.295 84.3118 145.13 84.9403 144.811 85.4766C144.491 86.0092 144.038 86.4212 143.452 86.7124C142.87 87.0036 142.174 87.1491 141.364 87.1491ZM153.998 81.4815H151.292C151.278 81.3146 151.219 81.1708 151.116 81.0501C151.013 80.9293 150.88 80.837 150.717 80.7731C150.557 80.7056 150.379 80.6719 150.184 80.6719C149.932 80.6719 149.715 80.718 149.534 80.8104C149.353 80.9027 149.264 81.0341 149.268 81.2045C149.264 81.3253 149.316 81.4371 149.422 81.5401C149.532 81.6431 149.744 81.723 150.056 81.7798L151.718 82.0781C152.556 82.2308 153.179 82.4883 153.588 82.8505C154 83.2092 154.207 83.6903 154.211 84.294C154.207 84.8764 154.033 85.3825 153.689 85.8121C153.348 86.2383 152.881 86.5685 152.288 86.8029C151.699 87.0337 151.026 87.1491 150.269 87.1491C149.019 87.1491 148.041 86.8935 147.334 86.3821C146.631 85.8707 146.239 85.196 146.157 84.358H149.076C149.115 84.6172 149.243 84.8178 149.46 84.9599C149.68 85.0984 149.957 85.1676 150.29 85.1676C150.56 85.1676 150.782 85.1214 150.956 85.0291C151.134 84.9368 151.224 84.8054 151.228 84.6349C151.224 84.4787 151.146 84.3544 150.994 84.2621C150.844 84.1697 150.61 84.0952 150.29 84.0384L148.842 83.7827C148.007 83.6371 147.382 83.3601 146.967 82.9517C146.551 82.5433 146.345 82.0178 146.349 81.375C146.345 80.8068 146.494 80.3256 146.796 79.9315C147.102 79.5337 147.537 79.2319 148.101 79.0259C148.669 78.8164 149.342 78.7116 150.12 78.7116C151.303 78.7116 152.235 78.9567 152.917 79.4467C153.602 79.9368 153.962 80.6151 153.998 81.4815ZM162.816 81.4815H160.11C160.096 81.3146 160.037 81.1708 159.934 81.0501C159.831 80.9293 159.698 80.837 159.535 80.7731C159.375 80.7056 159.198 80.6719 159.002 80.6719C158.75 80.6719 158.534 80.718 158.352 80.8104C158.171 80.9027 158.083 81.0341 158.086 81.2045C158.083 81.3253 158.134 81.4371 158.241 81.5401C158.351 81.6431 158.562 81.723 158.874 81.7798L160.536 82.0781C161.374 82.2308 161.998 82.4883 162.406 82.8505C162.818 83.2092 163.026 83.6903 163.029 84.294C163.026 84.8764 162.852 85.3825 162.507 85.8121C162.166 86.2383 161.699 86.5685 161.106 86.8029C160.517 87.0337 159.844 87.1491 159.088 87.1491C157.838 87.1491 156.859 86.8935 156.153 86.3821C155.449 85.8707 155.057 85.196 154.975 84.358H157.894C157.933 84.6172 158.061 84.8178 158.278 84.9599C158.498 85.0984 158.775 85.1676 159.109 85.1676C159.379 85.1676 159.601 85.1214 159.775 85.0291C159.952 84.9368 160.043 84.8054 160.046 84.6349C160.043 84.4787 159.965 84.3544 159.812 84.2621C159.663 84.1697 159.428 84.0952 159.109 84.0384L157.66 83.7827C156.825 83.6371 156.2 83.3601 155.785 82.9517C155.369 82.5433 155.164 82.0178 155.167 81.375C155.164 80.8068 155.313 80.3256 155.615 79.9315C155.92 79.5337 156.355 79.2319 156.92 79.0259C157.488 78.8164 158.161 78.7116 158.938 78.7116C160.121 78.7116 161.053 78.9567 161.735 79.4467C162.42 79.9368 162.781 80.6151 162.816 81.4815ZM171.086 87.1491C170.198 87.1491 169.438 86.9734 168.806 86.6218C168.174 86.2667 167.689 85.7731 167.352 85.141C167.015 84.5053 166.846 83.7685 166.846 82.9304C166.846 82.0923 167.015 81.3572 167.352 80.7251C167.689 80.0895 168.174 79.5959 168.806 79.2443C169.438 78.8892 170.198 78.7116 171.086 78.7116C171.888 78.7116 172.583 78.8572 173.169 79.1484C173.758 79.4361 174.214 79.8445 174.538 80.3736C174.861 80.8991 175.024 81.517 175.028 82.2273H172.3C172.261 81.7976 172.137 81.4709 171.928 81.2472C171.722 81.0199 171.455 80.9062 171.129 80.9062C170.873 80.9062 170.649 80.9808 170.457 81.13C170.266 81.2756 170.116 81.4975 170.01 81.7958C169.903 82.0906 169.85 82.4616 169.85 82.9091C169.85 83.3565 169.903 83.7294 170.01 84.0277C170.116 84.3224 170.266 84.5444 170.457 84.6935C170.649 84.8391 170.873 84.9119 171.129 84.9119C171.345 84.9119 171.537 84.8622 171.704 84.7628C171.871 84.6598 172.006 84.5107 172.109 84.3153C172.215 84.1165 172.279 83.875 172.3 83.5909H175.028C175.017 84.3118 174.852 84.9403 174.532 85.4766C174.213 86.0092 173.76 86.4212 173.174 86.7124C172.592 87.0036 171.896 87.1491 171.086 87.1491ZM180.183 87.1491C179.295 87.1491 178.535 86.9734 177.903 86.6218C177.271 86.2667 176.786 85.7731 176.449 85.141C176.111 84.5053 175.943 83.7685 175.943 82.9304C175.943 82.0923 176.111 81.3572 176.449 80.7251C176.786 80.0895 177.271 79.5959 177.903 79.2443C178.535 78.8892 179.295 78.7116 180.183 78.7116C181.07 78.7116 181.83 78.8892 182.462 79.2443C183.095 79.5959 183.579 80.0895 183.917 80.7251C184.254 81.3572 184.423 82.0923 184.423 82.9304C184.423 83.7685 184.254 84.5053 183.917 85.141C183.579 85.7731 183.095 86.2667 182.462 86.6218C181.83 86.9734 181.07 87.1491 180.183 87.1491ZM180.204 84.9759C180.453 84.9759 180.667 84.8924 180.848 84.7255C181.03 84.5586 181.17 84.3207 181.269 84.0117C181.369 83.7028 181.418 83.3352 181.418 82.9091C181.418 82.4794 181.369 82.1119 181.269 81.8065C181.17 81.4975 181.03 81.2596 180.848 81.0927C180.667 80.9258 180.453 80.8423 180.204 80.8423C179.941 80.8423 179.716 80.9258 179.527 81.0927C179.339 81.2596 179.195 81.4975 179.096 81.8065C178.997 82.1119 178.947 82.4794 178.947 82.9091C178.947 83.3352 178.997 83.7028 179.096 84.0117C179.195 84.3207 179.339 84.5586 179.527 84.7255C179.716 84.8924 179.941 84.9759 180.204 84.9759ZM188.578 87.1065C187.995 87.1065 187.459 86.9538 186.969 86.6484C186.482 86.343 186.092 85.8796 185.797 85.2582C185.506 84.6367 185.36 83.8537 185.36 82.9091C185.36 81.9219 185.513 81.1193 185.818 80.5014C186.127 79.8835 186.525 79.4308 187.011 79.1431C187.502 78.8555 188.016 78.7116 188.556 78.7116C188.961 78.7116 189.316 78.7827 189.622 78.9247C189.927 79.0632 190.183 79.2496 190.389 79.484C190.595 79.7148 190.751 79.9687 190.857 80.2457H190.9V76.0909H193.84V87H190.921V85.6577H190.857C190.744 85.9347 190.58 86.1832 190.367 86.4034C190.158 86.62 189.902 86.7923 189.6 86.9201C189.302 87.0444 188.961 87.1065 188.578 87.1065ZM189.664 84.848C189.934 84.848 190.165 84.7699 190.357 84.6136C190.552 84.4538 190.701 84.2301 190.804 83.9425C190.911 83.6513 190.964 83.3068 190.964 82.9091C190.964 82.5043 190.911 82.158 190.804 81.8704C190.701 81.5792 190.552 81.3572 190.357 81.2045C190.165 81.0483 189.934 80.9702 189.664 80.9702C189.394 80.9702 189.163 81.0483 188.972 81.2045C188.783 81.3572 188.638 81.5792 188.535 81.8704C188.435 82.158 188.386 82.5043 188.386 82.9091C188.386 83.3139 188.435 83.6619 188.535 83.9531C188.638 84.2408 188.783 84.4627 188.972 84.619C189.163 84.7717 189.394 84.848 189.664 84.848ZM199.204 87.1491C198.331 87.1491 197.578 86.9822 196.946 86.6484C196.317 86.3111 195.832 85.8281 195.492 85.1996C195.154 84.5675 194.986 83.8111 194.986 82.9304C194.986 82.0852 195.156 81.3466 195.497 80.7145C195.838 80.0824 196.319 79.5906 196.94 79.239C197.562 78.8874 198.295 78.7116 199.14 78.7116C199.758 78.7116 200.318 78.8075 200.818 78.9993C201.319 79.1911 201.747 79.4698 202.102 79.8356C202.457 80.1978 202.731 80.6381 202.922 81.1566C203.114 81.6751 203.21 82.2592 203.21 82.9091V83.5909H195.902V81.9716H200.504C200.5 81.7372 200.44 81.5312 200.323 81.3537C200.209 81.1726 200.055 81.0323 199.859 80.9329C199.668 80.8299 199.449 80.7784 199.204 80.7784C198.966 80.7784 198.748 80.8299 198.549 80.9329C198.35 81.0323 198.19 81.1708 198.07 81.3484C197.953 81.5259 197.89 81.7337 197.883 81.9716V83.7188C197.883 83.9815 197.938 84.2159 198.048 84.4219C198.158 84.6278 198.316 84.7894 198.522 84.9066C198.728 85.0238 198.977 85.0824 199.268 85.0824C199.471 85.0824 199.655 85.054 199.822 84.9972C199.993 84.9403 200.138 84.8587 200.259 84.7521C200.38 84.642 200.468 84.5107 200.525 84.358H203.21C203.118 84.9261 202.899 85.4197 202.555 85.8388C202.21 86.2543 201.754 86.5774 201.186 86.8082C200.621 87.0355 199.961 87.1491 199.204 87.1491ZM204.9 83.8466V81.2898L212.826 78.1151V80.7997L207.776 82.5469L207.862 82.419V82.7173L207.776 82.5895L212.826 84.3366V87.0213L204.9 83.8466ZM220.158 75.5795L216.643 88.6406H214.15L217.665 75.5795H220.158ZM228.471 81.4815H225.765C225.75 81.3146 225.692 81.1708 225.589 81.0501C225.486 80.9293 225.353 80.837 225.189 80.7731C225.029 80.7056 224.852 80.6719 224.657 80.6719C224.404 80.6719 224.188 80.718 224.007 80.8104C223.826 80.9027 223.737 81.0341 223.74 81.2045C223.737 81.3253 223.788 81.4371 223.895 81.5401C224.005 81.6431 224.216 81.723 224.529 81.7798L226.191 82.0781C227.029 82.2308 227.652 82.4883 228.06 82.8505C228.472 83.2092 228.68 83.6903 228.684 84.294C228.68 84.8764 228.506 85.3825 228.162 85.8121C227.821 86.2383 227.354 86.5685 226.761 86.8029C226.171 87.0337 225.498 87.1491 224.742 87.1491C223.492 87.1491 222.513 86.8935 221.807 86.3821C221.104 85.8707 220.711 85.196 220.63 84.358H223.549C223.588 84.6172 223.716 84.8178 223.932 84.9599C224.152 85.0984 224.429 85.1676 224.763 85.1676C225.033 85.1676 225.255 85.1214 225.429 85.0291C225.607 84.9368 225.697 84.8054 225.701 84.6349C225.697 84.4787 225.619 84.3544 225.466 84.2621C225.317 84.1697 225.083 84.0952 224.763 84.0384L223.314 83.7827C222.48 83.6371 221.855 83.3601 221.439 82.9517C221.024 82.5433 220.818 82.0178 220.821 81.375C220.818 80.8068 220.967 80.3256 221.269 79.9315C221.574 79.5337 222.009 79.2319 222.574 79.0259C223.142 78.8164 223.815 78.7116 224.593 78.7116C225.775 78.7116 226.707 78.9567 227.389 79.4467C228.075 79.9368 228.435 80.6151 228.471 81.4815ZM234.689 78.8182V80.9489H229.299V78.8182H234.689ZM230.343 76.858H233.283V84.3686C233.283 84.4822 233.303 84.5781 233.342 84.6562C233.381 84.7308 233.441 84.7876 233.523 84.8267C233.605 84.8622 233.709 84.88 233.837 84.88C233.926 84.88 234.029 84.8693 234.146 84.848C234.267 84.8267 234.356 84.8089 234.412 84.7947L234.839 86.8615C234.707 86.9006 234.519 86.9485 234.274 87.0053C234.032 87.0621 233.745 87.0994 233.411 87.1172C232.736 87.1527 232.17 87.0835 231.712 86.9094C231.254 86.7319 230.909 86.4531 230.678 86.0732C230.448 85.6932 230.336 85.2173 230.343 84.6456V76.858ZM237.679 90.0682C237.342 90.0682 237.02 90.0415 236.715 89.9883C236.41 89.9386 236.141 89.8693 235.911 89.7805L236.55 87.6925C236.791 87.7777 237.011 87.8327 237.21 87.8576C237.413 87.8825 237.585 87.8683 237.727 87.815C237.873 87.7617 237.977 87.6605 238.041 87.5114L238.105 87.3622L235.229 78.8182H238.297L239.618 84.4858H239.703L241.046 78.8182H244.135L241.152 87.6818C241.003 88.1328 240.786 88.5376 240.502 88.8963C240.222 89.2585 239.852 89.5444 239.394 89.7539C238.936 89.9634 238.364 90.0682 237.679 90.0682ZM247.912 76.0909V87H244.971V76.0909H247.912ZM253.33 87.1491C252.457 87.1491 251.704 86.9822 251.072 86.6484C250.443 86.3111 249.958 85.8281 249.618 85.1996C249.28 84.5675 249.112 83.8111 249.112 82.9304C249.112 82.0852 249.282 81.3466 249.623 80.7145C249.964 80.0824 250.445 79.5906 251.066 79.239C251.688 78.8874 252.421 78.7116 253.266 78.7116C253.884 78.7116 254.444 78.8075 254.944 78.9993C255.445 79.1911 255.873 79.4698 256.228 79.8356C256.583 80.1978 256.857 80.6381 257.048 81.1566C257.24 81.6751 257.336 82.2592 257.336 82.9091V83.5909H250.028V81.9716H254.63C254.626 81.7372 254.566 81.5312 254.449 81.3537C254.335 81.1726 254.181 81.0323 253.985 80.9329C253.794 80.8299 253.575 80.7784 253.33 80.7784C253.092 80.7784 252.874 80.8299 252.675 80.9329C252.476 81.0323 252.316 81.1708 252.196 81.3484C252.078 81.5259 252.016 81.7337 252.009 81.9716V83.7188C252.009 83.9815 252.064 84.2159 252.174 84.4219C252.284 84.6278 252.442 84.7894 252.648 84.9066C252.854 85.0238 253.103 85.0824 253.394 85.0824C253.597 85.0824 253.781 85.054 253.948 84.9972C254.119 84.9403 254.264 84.8587 254.385 84.7521C254.506 84.642 254.594 84.5107 254.651 84.358H257.336C257.244 84.9261 257.025 85.4197 256.681 85.8388C256.336 86.2543 255.88 86.5774 255.312 86.8082C254.747 87.0355 254.087 87.1491 253.33 87.1491ZM266.952 83.8466L259.026 87.0213V84.3366L264.076 82.5895L263.99 82.7173V82.419L264.076 82.5469L259.026 80.7997V78.1151L266.952 81.2898V83.8466ZM32.1655 101.847V99.2898L40.0916 96.1151V98.7997L35.0419 100.547L35.1271 100.419V100.717L35.0419 100.589L40.0916 102.337V105.021L32.1655 101.847ZM46.9551 96.8182V98.9489H41.5645V96.8182H46.9551ZM42.6085 94.858H45.5488V102.369C45.5488 102.482 45.5684 102.578 45.6074 102.656C45.6465 102.731 45.7069 102.788 45.7885 102.827C45.8702 102.862 45.975 102.88 46.1028 102.88C46.1916 102.88 46.2946 102.869 46.4118 102.848C46.5325 102.827 46.6213 102.809 46.6781 102.795L47.1042 104.862C46.9728 104.901 46.7846 104.949 46.5396 105.005C46.2981 105.062 46.0105 105.099 45.6767 105.117C45.002 105.153 44.4355 105.083 43.9775 104.909C43.5194 104.732 43.1749 104.453 42.9441 104.073C42.7132 103.693 42.6014 103.217 42.6085 102.646V94.858ZM48.1549 105V96.8182H51.0953V105H48.1549ZM49.6251 95.9659C49.2274 95.9659 48.8865 95.8345 48.6024 95.5717C48.3183 95.3089 48.1762 94.9929 48.1762 94.6236C48.1762 94.2543 48.3183 93.9382 48.6024 93.6754C48.8865 93.4126 49.2274 93.2812 49.6251 93.2812C50.0264 93.2812 50.3673 93.4126 50.6478 93.6754C50.9319 93.9382 51.074 94.2543 51.074 94.6236C51.074 94.9929 50.9319 95.3089 50.6478 95.5717C50.3673 95.8345 50.0264 95.9659 49.6251 95.9659ZM57.4727 96.8182V98.9489H52.082V96.8182H57.4727ZM53.1261 94.858H56.0664V102.369C56.0664 102.482 56.0859 102.578 56.125 102.656C56.1641 102.731 56.2244 102.788 56.3061 102.827C56.3878 102.862 56.4925 102.88 56.6204 102.88C56.7092 102.88 56.8121 102.869 56.9293 102.848C57.0501 102.827 57.1388 102.809 57.1957 102.795L57.6218 104.862C57.4904 104.901 57.3022 104.949 57.0572 105.005C56.8157 105.062 56.5281 105.099 56.1942 105.117C55.5195 105.153 54.9531 105.083 54.495 104.909C54.0369 104.732 53.6925 104.453 53.4616 104.073C53.2308 103.693 53.119 103.217 53.1261 102.646V94.858ZM61.7886 94.0909V105H58.8483V94.0909H61.7886ZM67.2072 105.149C66.3336 105.149 65.5808 104.982 64.9487 104.648C64.3201 104.311 63.8354 103.828 63.4945 103.2C63.1571 102.567 62.9885 101.811 62.9885 100.93C62.9885 100.085 63.1589 99.3466 63.4998 98.7145C63.8407 98.0824 64.3219 97.5906 64.9434 97.239C65.5648 96.8874 66.2981 96.7116 67.1433 96.7116C67.7612 96.7116 68.3205 96.8075 68.8212 96.9993C69.3219 97.1911 69.7498 97.4698 70.1049 97.8356C70.46 98.1978 70.7335 98.6381 70.9252 99.1566C71.117 99.6751 71.2129 100.259 71.2129 100.909V101.591H63.9047V99.9716H68.5069C68.5034 99.7372 68.443 99.5312 68.3258 99.3537C68.2122 99.1726 68.0577 99.0323 67.8624 98.9329C67.6706 98.8299 67.4522 98.7784 67.2072 98.7784C66.9693 98.7784 66.7509 98.8299 66.552 98.9329C66.3532 99.0323 66.1934 99.1708 66.0726 99.3484C65.9554 99.5259 65.8933 99.7337 65.8862 99.9716V101.719C65.8862 101.982 65.9412 102.216 66.0513 102.422C66.1614 102.628 66.3194 102.789 66.5254 102.907C66.7314 103.024 66.9799 103.082 67.2711 103.082C67.4735 103.082 67.6582 103.054 67.8251 102.997C67.9956 102.94 68.1412 102.859 68.2619 102.752C68.3826 102.642 68.4714 102.511 68.5282 102.358H71.2129C71.1206 102.926 70.9022 103.42 70.5577 103.839C70.2132 104.254 69.7569 104.577 69.1887 104.808C68.6241 105.036 67.9636 105.149 67.2072 105.149ZM80.8289 101.847L72.9028 105.021V102.337L77.9525 100.589L77.8673 100.717V100.419L77.9525 100.547L72.9028 98.7997V96.1151L80.8289 99.2898V101.847ZM88.7417 100.398V105H85.8014V94.0909H88.6352V98.3736H88.7204C88.9051 97.8516 89.2123 97.445 89.642 97.1538C90.0716 96.859 90.5883 96.7116 91.192 96.7116C91.7709 96.7116 92.2733 96.843 92.6995 97.1058C93.1292 97.3686 93.4612 97.7308 93.6956 98.1925C93.9335 98.6541 94.0507 99.1832 94.0471 99.7798V105H91.1068V100.398C91.1104 99.9929 91.0091 99.6751 90.8032 99.4442C90.6008 99.2134 90.3113 99.098 89.9349 99.098C89.697 99.098 89.4875 99.1513 89.3064 99.2578C89.1288 99.3608 88.9903 99.5099 88.8909 99.7053C88.795 99.897 88.7453 100.128 88.7417 100.398ZM99.4191 105.149C98.5455 105.149 97.7927 104.982 97.1606 104.648C96.532 104.311 96.0473 103.828 95.7064 103.2C95.3691 102.567 95.2004 101.811 95.2004 100.93C95.2004 100.085 95.3708 99.3466 95.7117 98.7145C96.0526 98.0824 96.5338 97.5906 97.1553 97.239C97.7767 96.8874 98.51 96.7116 99.3552 96.7116C99.9731 96.7116 100.532 96.8075 101.033 96.9993C101.534 97.1911 101.962 97.4698 102.317 97.8356C102.672 98.1978 102.945 98.6381 103.137 99.1566C103.329 99.6751 103.425 100.259 103.425 100.909V101.591H96.1166V99.9716H100.719C100.715 99.7372 100.655 99.5312 100.538 99.3537C100.424 99.1726 100.27 99.0323 100.074 98.9329C99.8825 98.8299 99.6642 98.7784 99.4191 98.7784C99.1812 98.7784 98.9628 98.8299 98.7639 98.9329C98.5651 99.0323 98.4053 99.1708 98.2845 99.3484C98.1673 99.5259 98.1052 99.7337 98.0981 99.9716V101.719C98.0981 101.982 98.1531 102.216 98.2632 102.422C98.3733 102.628 98.5313 102.789 98.7373 102.907C98.9433 103.024 99.1919 103.082 99.483 103.082C99.6855 103.082 99.8701 103.054 100.037 102.997C100.207 102.94 100.353 102.859 100.474 102.752C100.595 102.642 100.683 102.511 100.74 102.358H103.425C103.332 102.926 103.114 103.42 102.77 103.839C102.425 104.254 101.969 104.577 101.401 104.808C100.836 105.036 100.176 105.149 99.4191 105.149ZM107.565 94.0909V105H104.625V94.0909H107.565ZM112.003 94.0909V105H109.063V94.0909H112.003ZM117.443 105.149C116.556 105.149 115.796 104.973 115.164 104.622C114.531 104.267 114.047 103.773 113.709 103.141C113.372 102.505 113.203 101.768 113.203 100.93C113.203 100.092 113.372 99.3572 113.709 98.7251C114.047 98.0895 114.531 97.5959 115.164 97.2443C115.796 96.8892 116.556 96.7116 117.443 96.7116C118.331 96.7116 119.091 96.8892 119.723 97.2443C120.355 97.5959 120.84 98.0895 121.177 98.7251C121.515 99.3572 121.683 100.092 121.683 100.93C121.683 101.768 121.515 102.505 121.177 103.141C120.84 103.773 120.355 104.267 119.723 104.622C119.091 104.973 118.331 105.149 117.443 105.149ZM117.465 102.976C117.713 102.976 117.928 102.892 118.109 102.725C118.29 102.559 118.431 102.321 118.53 102.012C118.629 101.703 118.679 101.335 118.679 100.909C118.679 100.479 118.629 100.112 118.53 99.8065C118.431 99.4975 118.29 99.2596 118.109 99.0927C117.928 98.9258 117.713 98.8423 117.465 98.8423C117.202 98.8423 116.976 98.9258 116.788 99.0927C116.6 99.2596 116.456 99.4975 116.357 99.8065C116.257 100.112 116.208 100.479 116.208 100.909C116.208 101.335 116.257 101.703 116.357 102.012C116.456 102.321 116.6 102.559 116.788 102.725C116.976 102.892 117.202 102.976 117.465 102.976ZM127.314 105L125.268 96.8182H128.209L129.146 101.804H129.21L130.254 96.8182H133.109L134.196 101.761H134.26L135.155 96.8182H138.095L136.05 105H132.875L131.724 100.611H131.639L130.488 105H127.314ZM142.764 105.149C141.89 105.149 141.137 104.982 140.505 104.648C139.877 104.311 139.392 103.828 139.051 103.2C138.714 102.567 138.545 101.811 138.545 100.93C138.545 100.085 138.716 99.3466 139.056 98.7145C139.397 98.0824 139.879 97.5906 140.5 97.239C141.121 96.8874 141.855 96.7116 142.7 96.7116C143.318 96.7116 143.877 96.8075 144.378 96.9993C144.879 97.1911 145.306 97.4698 145.662 97.8356C146.017 98.1978 146.29 98.6381 146.482 99.1566C146.674 99.6751 146.77 100.259 146.77 100.909V101.591H139.461V99.9716H144.064C144.06 99.7372 144 99.5312 143.882 99.3537C143.769 99.1726 143.614 99.0323 143.419 98.9329C143.227 98.8299 143.009 98.7784 142.764 98.7784C142.526 98.7784 142.308 98.8299 142.109 98.9329C141.91 99.0323 141.75 99.1708 141.629 99.3484C141.512 99.5259 141.45 99.7337 141.443 99.9716V101.719C141.443 101.982 141.498 102.216 141.608 102.422C141.718 102.628 141.876 102.789 142.082 102.907C142.288 103.024 142.537 103.082 142.828 103.082C143.03 103.082 143.215 103.054 143.382 102.997C143.552 102.94 143.698 102.859 143.819 102.752C143.939 102.642 144.028 102.511 144.085 102.358H146.77C146.677 102.926 146.459 103.42 146.114 103.839C145.77 104.254 145.314 104.577 144.745 104.808C144.181 105.036 143.52 105.149 142.764 105.149ZM147.927 105V94.0909H150.867V98.2457H150.91C151.016 97.9687 151.172 97.7148 151.378 97.484C151.584 97.2496 151.84 97.0632 152.146 96.9247C152.451 96.7827 152.806 96.7116 153.211 96.7116C153.751 96.7116 154.264 96.8555 154.75 97.1431C155.24 97.4308 155.638 97.8835 155.943 98.5014C156.252 99.1193 156.407 99.9219 156.407 100.909C156.407 101.854 156.259 102.637 155.965 103.258C155.674 103.88 155.283 104.343 154.793 104.648C154.306 104.954 153.772 105.107 153.19 105.107C152.806 105.107 152.463 105.044 152.161 104.92C151.863 104.792 151.608 104.62 151.394 104.403C151.185 104.183 151.023 103.935 150.91 103.658H150.846V105H147.927ZM150.803 100.909C150.803 101.307 150.855 101.651 150.958 101.942C151.064 102.23 151.213 102.454 151.405 102.614C151.6 102.77 151.833 102.848 152.103 102.848C152.373 102.848 152.602 102.772 152.79 102.619C152.982 102.463 153.127 102.241 153.227 101.953C153.33 101.662 153.381 101.314 153.381 100.909C153.381 100.504 153.33 100.158 153.227 99.8704C153.127 99.5792 152.982 99.3572 152.79 99.2045C152.602 99.0483 152.373 98.9702 152.103 98.9702C151.833 98.9702 151.6 99.0483 151.405 99.2045C151.213 99.3572 151.064 99.5792 150.958 99.8704C150.855 100.158 150.803 100.504 150.803 100.909ZM161.116 101.847V99.2898L169.042 96.1151V98.7997L163.992 100.547L164.077 100.419V100.717L163.992 100.589L169.042 102.337V105.021L161.116 101.847ZM176.374 93.5795L172.858 106.641H170.366L173.881 93.5795H176.374ZM182.087 96.8182V98.9489H176.696V96.8182H182.087ZM177.74 94.858H180.681V102.369C180.681 102.482 180.7 102.578 180.739 102.656C180.778 102.731 180.839 102.788 180.92 102.827C181.002 102.862 181.107 102.88 181.235 102.88C181.323 102.88 181.426 102.869 181.544 102.848C181.664 102.827 181.753 102.809 181.81 102.795L182.236 104.862C182.105 104.901 181.916 104.949 181.671 105.005C181.43 105.062 181.142 105.099 180.809 105.117C180.134 105.153 179.567 105.083 179.109 104.909C178.651 104.732 178.307 104.453 178.076 104.073C177.845 103.693 177.733 103.217 177.74 102.646V94.858ZM183.287 105V96.8182H186.227V105H183.287ZM184.757 95.9659C184.359 95.9659 184.018 95.8345 183.734 95.5717C183.45 95.3089 183.308 94.9929 183.308 94.6236C183.308 94.2543 183.45 93.9382 183.734 93.6754C184.018 93.4126 184.359 93.2812 184.757 93.2812C185.158 93.2812 185.499 93.4126 185.78 93.6754C186.064 93.9382 186.206 94.2543 186.206 94.6236C186.206 94.9929 186.064 95.3089 185.78 95.5717C185.499 95.8345 185.158 95.9659 184.757 95.9659ZM192.604 96.8182V98.9489H187.214V96.8182H192.604ZM188.258 94.858H191.198V102.369C191.198 102.482 191.218 102.578 191.257 102.656C191.296 102.731 191.356 102.788 191.438 102.827C191.52 102.862 191.624 102.88 191.752 102.88C191.841 102.88 191.944 102.869 192.061 102.848C192.182 102.827 192.271 102.809 192.328 102.795L192.754 104.862C192.622 104.901 192.434 104.949 192.189 105.005C191.948 105.062 191.66 105.099 191.326 105.117C190.651 105.153 190.085 105.083 189.627 104.909C189.169 104.732 188.824 104.453 188.593 104.073C188.363 103.693 188.251 103.217 188.258 102.646V94.858ZM196.92 94.0909V105H193.98V94.0909H196.92ZM202.339 105.149C201.465 105.149 200.713 104.982 200.081 104.648C199.452 104.311 198.967 103.828 198.626 103.2C198.289 102.567 198.12 101.811 198.12 100.93C198.12 100.085 198.291 99.3466 198.632 98.7145C198.973 98.0824 199.454 97.5906 200.075 97.239C200.697 96.8874 201.43 96.7116 202.275 96.7116C202.893 96.7116 203.452 96.8075 203.953 96.9993C204.454 97.1911 204.882 97.4698 205.237 97.8356C205.592 98.1978 205.865 98.6381 206.057 99.1566C206.249 99.6751 206.345 100.259 206.345 100.909V101.591H199.036V99.9716H203.639C203.635 99.7372 203.575 99.5312 203.458 99.3537C203.344 99.1726 203.19 99.0323 202.994 98.9329C202.802 98.8299 202.584 98.7784 202.339 98.7784C202.101 98.7784 201.883 98.8299 201.684 98.9329C201.485 99.0323 201.325 99.1708 201.204 99.3484C201.087 99.5259 201.025 99.7337 201.018 99.9716V101.719C201.018 101.982 201.073 102.216 201.183 102.422C201.293 102.628 201.451 102.789 201.657 102.907C201.863 103.024 202.112 103.082 202.403 103.082C202.605 103.082 202.79 103.054 202.957 102.997C203.127 102.94 203.273 102.859 203.394 102.752C203.514 102.642 203.603 102.511 203.66 102.358H206.345C206.252 102.926 206.034 103.42 205.69 103.839C205.345 104.254 204.889 104.577 204.321 104.808C203.756 105.036 203.095 105.149 202.339 105.149ZM215.961 101.847L208.035 105.021V102.337L213.084 100.589L212.999 100.717V100.419L213.084 100.547L208.035 98.7997V96.1151L215.961 99.2898V101.847ZM23.2006 119.847V117.29L31.1268 114.115V116.8L26.0771 118.547L26.1623 118.419V118.717L26.0771 118.589L31.1268 120.337V123.021L23.2006 119.847ZM38.459 111.58L34.9434 124.641H32.4505L35.9661 111.58H38.459ZM42.233 118.398V123H39.2926V112.091H42.1264V116.374H42.2116C42.3963 115.852 42.7035 115.445 43.1332 115.154C43.5629 114.859 44.0795 114.712 44.6832 114.712C45.2621 114.712 45.7646 114.843 46.1907 115.106C46.6204 115.369 46.9524 115.731 47.1868 116.192C47.4247 116.654 47.5419 117.183 47.5384 117.78V123H44.598V118.398C44.6016 117.993 44.5004 117.675 44.2944 117.444C44.092 117.213 43.8026 117.098 43.4261 117.098C43.1882 117.098 42.9787 117.151 42.7976 117.258C42.62 117.361 42.4815 117.51 42.3821 117.705C42.2862 117.897 42.2365 118.128 42.233 118.398ZM52.9103 123.149C52.0368 123.149 51.2839 122.982 50.6518 122.648C50.0233 122.311 49.5385 121.828 49.1976 121.2C48.8603 120.567 48.6916 119.811 48.6916 118.93C48.6916 118.085 48.862 117.347 49.2029 116.714C49.5439 116.082 50.025 115.591 50.6465 115.239C51.2679 114.887 52.0012 114.712 52.8464 114.712C53.4643 114.712 54.0236 114.808 54.5243 114.999C55.025 115.191 55.4529 115.47 55.8081 115.836C56.1632 116.198 56.4366 116.638 56.6284 117.157C56.8201 117.675 56.916 118.259 56.916 118.909V119.591H49.6078V117.972H54.21C54.2065 117.737 54.1461 117.531 54.0289 117.354C53.9153 117.173 53.7608 117.032 53.5655 116.933C53.3738 116.83 53.1554 116.778 52.9103 116.778C52.6724 116.778 52.454 116.83 52.2551 116.933C52.0563 117.032 51.8965 117.171 51.7757 117.348C51.6586 117.526 51.5964 117.734 51.5893 117.972V119.719C51.5893 119.982 51.6444 120.216 51.7544 120.422C51.8645 120.628 52.0225 120.789 52.2285 120.907C52.4345 121.024 52.6831 121.082 52.9743 121.082C53.1767 121.082 53.3613 121.054 53.5282 120.997C53.6987 120.94 53.8443 120.859 53.965 120.752C54.0858 120.642 54.1745 120.511 54.2314 120.358H56.916C56.8237 120.926 56.6053 121.42 56.2608 121.839C55.9164 122.254 55.46 122.577 54.8919 122.808C54.3272 123.036 53.6667 123.149 52.9103 123.149ZM60.3957 123.128C59.8737 123.128 59.412 123.043 59.0107 122.872C58.613 122.698 58.3005 122.435 58.0732 122.084C57.846 121.732 57.7323 121.285 57.7323 120.741C57.7323 120.294 57.8087 119.912 57.9614 119.596C58.1141 119.277 58.3271 119.016 58.6006 118.813C58.874 118.611 59.1919 118.456 59.5541 118.35C59.9198 118.243 60.314 118.174 60.7366 118.142C61.1947 118.107 61.5622 118.064 61.8392 118.014C62.1198 117.961 62.3222 117.888 62.4465 117.796C62.5708 117.7 62.6329 117.574 62.6329 117.418V117.396C62.6329 117.183 62.5512 117.02 62.3879 116.906C62.2245 116.793 62.015 116.736 61.7593 116.736C61.4788 116.736 61.2497 116.798 61.0722 116.922C60.8982 117.043 60.7934 117.229 60.7579 117.482H58.0519C58.0874 116.984 58.2455 116.526 58.526 116.107C58.8101 115.685 59.2238 115.347 59.7671 115.095C60.3105 114.839 60.9887 114.712 61.8019 114.712C62.3879 114.712 62.9134 114.781 63.3786 114.919C63.8438 115.054 64.2398 115.244 64.5665 115.489C64.8932 115.731 65.1418 116.015 65.3122 116.342C65.4862 116.665 65.5732 117.016 65.5732 117.396V123H62.8247V121.849H62.7607C62.5974 122.155 62.3985 122.402 62.1642 122.59C61.9333 122.778 61.6688 122.915 61.3705 123C61.0757 123.085 60.7508 123.128 60.3957 123.128ZM61.3545 121.274C61.5782 121.274 61.7877 121.228 61.983 121.136C62.1819 121.043 62.3435 120.91 62.4678 120.736C62.5921 120.562 62.6542 120.351 62.6542 120.102V119.42C62.5761 119.452 62.4926 119.483 62.4039 119.511C62.3186 119.539 62.2263 119.566 62.1269 119.591C62.031 119.616 61.928 119.639 61.8179 119.66C61.7114 119.681 61.5995 119.701 61.4823 119.719C61.2551 119.754 61.0686 119.813 60.923 119.895C60.781 119.973 60.6744 120.07 60.6034 120.188C60.536 120.301 60.5022 120.429 60.5022 120.571C60.5022 120.798 60.5821 120.972 60.7419 121.093C60.9017 121.214 61.1059 121.274 61.3545 121.274ZM69.9398 123.107C69.3574 123.107 68.8212 122.954 68.3311 122.648C67.8446 122.343 67.454 121.88 67.1593 121.258C66.8681 120.637 66.7225 119.854 66.7225 118.909C66.7225 117.922 66.8752 117.119 67.1806 116.501C67.4895 115.884 67.8873 115.431 68.3738 115.143C68.8638 114.855 69.3787 114.712 69.9185 114.712C70.3233 114.712 70.6784 114.783 70.9838 114.925C71.2892 115.063 71.5449 115.25 71.7509 115.484C71.9569 115.715 72.1131 115.969 72.2196 116.246H72.2623V112.091H75.2026V123H72.2836V121.658H72.2196C72.106 121.935 71.9426 122.183 71.7296 122.403C71.5201 122.62 71.2644 122.792 70.9625 122.92C70.6642 123.044 70.3233 123.107 69.9398 123.107ZM71.0265 120.848C71.2963 120.848 71.5272 120.77 71.7189 120.614C71.9142 120.454 72.0634 120.23 72.1664 119.942C72.2729 119.651 72.3262 119.307 72.3262 118.909C72.3262 118.504 72.2729 118.158 72.1664 117.87C72.0634 117.579 71.9142 117.357 71.7189 117.205C71.5272 117.048 71.2963 116.97 71.0265 116.97C70.7566 116.97 70.5257 117.048 70.334 117.205C70.1458 117.357 70.0002 117.579 69.8972 117.87C69.7978 118.158 69.748 118.504 69.748 118.909C69.748 119.314 69.7978 119.662 69.8972 119.953C70.0002 120.241 70.1458 120.463 70.334 120.619C70.5257 120.772 70.7566 120.848 71.0265 120.848ZM85.0623 119.847L77.1362 123.021V120.337L82.1859 118.589L82.1007 118.717V118.419L82.1859 118.547L77.1362 116.8V114.115L85.0623 117.29V119.847ZM23.2006 155.847V153.29L31.1268 150.115V152.8L26.0771 154.547L26.1623 154.419V154.717L26.0771 154.589L31.1268 156.337V159.021L23.2006 155.847ZM33.0684 159V148.091H36.0087V152.246H36.0513C36.1578 151.969 36.3141 151.715 36.5201 151.484C36.726 151.25 36.9817 151.063 37.2871 150.925C37.5925 150.783 37.9476 150.712 38.3525 150.712C38.8922 150.712 39.4054 150.855 39.8919 151.143C40.3819 151.431 40.7797 151.884 41.0851 152.501C41.394 153.119 41.5485 153.922 41.5485 154.909C41.5485 155.854 41.4011 156.637 41.1064 157.258C40.8152 157.88 40.4245 158.343 39.9345 158.648C39.448 158.954 38.9135 159.107 38.3311 159.107C37.9476 159.107 37.6049 159.044 37.3031 158.92C37.0048 158.792 36.7491 158.62 36.536 158.403C36.3265 158.183 36.165 157.935 36.0513 157.658H35.9874V159H33.0684ZM35.9448 154.909C35.9448 155.307 35.9963 155.651 36.0993 155.942C36.2058 156.23 36.3549 156.454 36.5467 156.614C36.742 156.77 36.9746 156.848 37.2445 156.848C37.5144 156.848 37.7434 156.772 37.9316 156.619C38.1234 156.463 38.269 156.241 38.3684 155.953C38.4714 155.662 38.5229 155.314 38.5229 154.909C38.5229 154.504 38.4714 154.158 38.3684 153.87C38.269 153.579 38.1234 153.357 37.9316 153.205C37.7434 153.048 37.5144 152.97 37.2445 152.97C36.9746 152.97 36.742 153.048 36.5467 153.205C36.3549 153.357 36.2058 153.579 36.0993 153.87C35.9963 154.158 35.9448 154.504 35.9448 154.909ZM46.7207 159.149C45.8329 159.149 45.073 158.973 44.4409 158.622C43.8088 158.267 43.324 157.773 42.9867 157.141C42.6493 156.505 42.4806 155.768 42.4806 154.93C42.4806 154.092 42.6493 153.357 42.9867 152.725C43.324 152.089 43.8088 151.596 44.4409 151.244C45.073 150.889 45.8329 150.712 46.7207 150.712C47.6085 150.712 48.3684 150.889 49.0005 151.244C49.6326 151.596 50.1174 152.089 50.4547 152.725C50.7921 153.357 50.9608 154.092 50.9608 154.93C50.9608 155.768 50.7921 156.505 50.4547 157.141C50.1174 157.773 49.6326 158.267 49.0005 158.622C48.3684 158.973 47.6085 159.149 46.7207 159.149ZM46.742 156.976C46.9906 156.976 47.2054 156.892 47.3865 156.725C47.5676 156.559 47.7079 156.321 47.8074 156.012C47.9068 155.703 47.9565 155.335 47.9565 154.909C47.9565 154.479 47.9068 154.112 47.8074 153.806C47.7079 153.498 47.5676 153.26 47.3865 153.093C47.2054 152.926 46.9906 152.842 46.742 152.842C46.4792 152.842 46.2537 152.926 46.0655 153.093C45.8773 153.26 45.7335 153.498 45.6341 153.806C45.5346 154.112 45.4849 154.479 45.4849 154.909C45.4849 155.335 45.5346 155.703 45.6341 156.012C45.7335 156.321 45.8773 156.559 46.0655 156.725C46.2537 156.892 46.4792 156.976 46.742 156.976ZM55.1156 159.107C54.5332 159.107 53.997 158.954 53.5069 158.648C53.0204 158.343 52.6298 157.88 52.335 157.258C52.0439 156.637 51.8983 155.854 51.8983 154.909C51.8983 153.922 52.051 153.119 52.3564 152.501C52.6653 151.884 53.063 151.431 53.5495 151.143C54.0396 150.855 54.5545 150.712 55.0943 150.712C55.4991 150.712 55.8542 150.783 56.1596 150.925C56.465 151.063 56.7207 151.25 56.9267 151.484C57.1326 151.715 57.2889 151.969 57.3954 152.246H57.438V148.091H60.3784V159H57.4593V157.658H57.3954C57.2818 157.935 57.1184 158.183 56.9054 158.403C56.6958 158.62 56.4402 158.792 56.1383 158.92C55.84 159.044 55.4991 159.107 55.1156 159.107ZM56.2022 156.848C56.4721 156.848 56.7029 156.77 56.8947 156.614C57.09 156.454 57.2392 156.23 57.3422 155.942C57.4487 155.651 57.502 155.307 57.502 154.909C57.502 154.504 57.4487 154.158 57.3422 153.87C57.2392 153.579 57.09 153.357 56.8947 153.205C56.7029 153.048 56.4721 152.97 56.2022 152.97C55.9324 152.97 55.7015 153.048 55.5098 153.205C55.3216 153.357 55.176 153.579 55.073 153.87C54.9735 154.158 54.9238 154.504 54.9238 154.909C54.9238 155.314 54.9735 155.662 55.073 155.953C55.176 156.241 55.3216 156.463 55.5098 156.619C55.7015 156.772 55.9324 156.848 56.2022 156.848ZM63.6117 162.068C63.2743 162.068 62.9529 162.042 62.6475 161.988C62.3422 161.939 62.074 161.869 61.8432 161.781L62.4824 159.692C62.7239 159.778 62.9441 159.833 63.1429 159.858C63.3453 159.882 63.5176 159.868 63.6596 159.815C63.8052 159.762 63.91 159.661 63.9739 159.511L64.0378 159.362L61.1614 150.818H64.2296L65.5506 156.486H65.6358L66.9782 150.818H70.0676L67.0847 159.682C66.9355 160.133 66.7189 160.538 66.4348 160.896C66.1543 161.259 65.785 161.544 65.3269 161.754C64.8688 161.963 64.2971 162.068 63.6117 162.068ZM79.3201 155.847L71.394 159.021V156.337L76.4437 154.589L76.3585 154.717V154.419L76.4437 154.547L71.394 152.8V150.115L79.3201 153.29V155.847ZM32.1655 173.847V171.29L40.0916 168.115V170.8L35.0419 172.547L35.1271 172.419V172.717L35.0419 172.589L40.0916 174.337V177.021L32.1655 173.847ZM49.5545 171.482H46.8485C46.8343 171.315 46.7757 171.171 46.6728 171.05C46.5698 170.929 46.4366 170.837 46.2733 170.773C46.1135 170.706 45.9359 170.672 45.7406 170.672C45.4885 170.672 45.2718 170.718 45.0907 170.81C44.9096 170.903 44.8208 171.034 44.8244 171.205C44.8208 171.325 44.8723 171.437 44.9789 171.54C45.089 171.643 45.3002 171.723 45.6127 171.78L47.2747 172.078C48.1127 172.231 48.736 172.488 49.1444 172.85C49.5563 173.209 49.764 173.69 49.7676 174.294C49.764 174.876 49.59 175.382 49.2456 175.812C48.9047 176.238 48.4377 176.569 47.8446 176.803C47.2551 177.034 46.5822 177.149 45.8258 177.149C44.5758 177.149 43.5975 176.893 42.8908 176.382C42.1877 175.871 41.7953 175.196 41.7136 174.358H44.6326C44.6717 174.617 44.7995 174.818 45.0162 174.96C45.2363 175.098 45.5133 175.168 45.8471 175.168C46.117 175.168 46.339 175.121 46.513 175.029C46.6905 174.937 46.7811 174.805 46.7846 174.635C46.7811 174.479 46.7029 174.354 46.5502 174.262C46.4011 174.17 46.1667 174.095 45.8471 174.038L44.3983 173.783C43.5637 173.637 42.9387 173.36 42.5233 172.952C42.1078 172.543 41.9018 172.018 41.9054 171.375C41.9018 170.807 42.051 170.326 42.3528 169.931C42.6582 169.534 43.0932 169.232 43.6578 169.026C44.226 168.816 44.899 168.712 45.6767 168.712C46.8592 168.712 47.7914 168.957 48.4732 169.447C49.1586 169.937 49.519 170.615 49.5545 171.482ZM54.8359 177.149C53.9482 177.149 53.1882 176.973 52.5561 176.622C51.924 176.267 51.4393 175.773 51.1019 175.141C50.7646 174.505 50.5959 173.768 50.5959 172.93C50.5959 172.092 50.7646 171.357 51.1019 170.725C51.4393 170.089 51.924 169.596 52.5561 169.244C53.1882 168.889 53.9482 168.712 54.8359 168.712C55.6385 168.712 56.3327 168.857 56.9187 169.148C57.5082 169.436 57.9645 169.844 58.2876 170.374C58.6108 170.899 58.7741 171.517 58.7777 172.227H56.0504C56.0114 171.798 55.8871 171.471 55.6776 171.247C55.4716 171.02 55.2053 170.906 54.8786 170.906C54.6229 170.906 54.3991 170.981 54.2074 171.13C54.0156 171.276 53.8665 171.498 53.7599 171.796C53.6534 172.091 53.6001 172.462 53.6001 172.909C53.6001 173.357 53.6534 173.729 53.7599 174.028C53.8665 174.322 54.0156 174.544 54.2074 174.694C54.3991 174.839 54.6229 174.912 54.8786 174.912C55.0952 174.912 55.2869 174.862 55.4538 174.763C55.6207 174.66 55.7557 174.511 55.8587 174.315C55.9652 174.116 56.0291 173.875 56.0504 173.591H58.7777C58.767 174.312 58.6019 174.94 58.2823 175.477C57.9627 176.009 57.5099 176.421 56.924 176.712C56.3416 177.004 55.6456 177.149 54.8359 177.149ZM59.9909 177V168.818H62.846V170.374H62.9312C63.0803 169.798 63.3165 169.377 63.6396 169.111C63.9664 168.845 64.3481 168.712 64.7849 168.712C64.9127 168.712 65.0388 168.722 65.1631 168.744C65.2909 168.761 65.4134 168.788 65.5306 168.824V171.332C65.385 171.283 65.2057 171.245 64.9926 171.221C64.7796 171.196 64.5967 171.183 64.444 171.183C64.1563 171.183 63.8971 171.249 63.6663 171.38C63.439 171.508 63.2597 171.689 63.1283 171.924C62.9969 172.154 62.9312 172.426 62.9312 172.739V177H59.9909ZM66.4948 177V168.818H69.4351V177H66.4948ZM67.9649 167.966C67.5672 167.966 67.2263 167.835 66.9422 167.572C66.6581 167.309 66.5161 166.993 66.5161 166.624C66.5161 166.254 66.6581 165.938 66.9422 165.675C67.2263 165.413 67.5672 165.281 67.9649 165.281C68.3662 165.281 68.7071 165.413 68.9877 165.675C69.2718 165.938 69.4138 166.254 69.4138 166.624C69.4138 166.993 69.2718 167.309 68.9877 167.572C68.7071 167.835 68.3662 167.966 67.9649 167.966ZM70.9332 180.068V168.818H73.8523V170.246H73.9162C74.0227 169.969 74.179 169.715 74.3849 169.484C74.5909 169.25 74.8466 169.063 75.152 168.925C75.4574 168.783 75.8125 168.712 76.2173 168.712C76.7571 168.712 77.2702 168.855 77.7567 169.143C78.2468 169.431 78.6445 169.884 78.9499 170.501C79.2589 171.119 79.4134 171.922 79.4134 172.909C79.4134 173.854 79.266 174.637 78.9712 175.258C78.68 175.88 78.2894 176.343 77.7994 176.648C77.3129 176.954 76.7784 177.107 76.196 177.107C75.8125 177.107 75.4698 177.044 75.168 176.92C74.8697 176.792 74.614 176.62 74.4009 176.403C74.1914 176.183 74.0298 175.935 73.9162 175.658H73.8736V180.068H70.9332ZM73.8097 172.909C73.8097 173.307 73.8612 173.651 73.9641 173.942C74.0707 174.23 74.2198 174.454 74.4116 174.614C74.6069 174.77 74.8395 174.848 75.1094 174.848C75.3793 174.848 75.6083 174.772 75.7965 174.619C75.9883 174.463 76.1339 174.241 76.2333 173.953C76.3363 173.662 76.3878 173.314 76.3878 172.909C76.3878 172.504 76.3363 172.158 76.2333 171.87C76.1339 171.579 75.9883 171.357 75.7965 171.205C75.6083 171.048 75.3793 170.97 75.1094 170.97C74.8395 170.97 74.6069 171.048 74.4116 171.205C74.2198 171.357 74.0707 171.579 73.9641 171.87C73.8612 172.158 73.8097 172.504 73.8097 172.909ZM85.5244 168.818V170.949H80.1338V168.818H85.5244ZM81.1778 166.858H84.1182V174.369C84.1182 174.482 84.1377 174.578 84.1768 174.656C84.2158 174.731 84.2762 174.788 84.3579 174.827C84.4395 174.862 84.5443 174.88 84.6721 174.88C84.7609 174.88 84.8639 174.869 84.9811 174.848C85.1018 174.827 85.1906 174.809 85.2474 174.795L85.6736 176.862C85.5422 176.901 85.354 176.949 85.1089 177.005C84.8675 177.062 84.5798 177.099 84.246 177.117C83.5713 177.153 83.0049 177.083 82.5468 176.909C82.0887 176.732 81.7442 176.453 81.5134 176.073C81.2826 175.693 81.1707 175.217 81.1778 174.646V166.858ZM95.1404 173.847L87.2143 177.021V174.337L92.264 172.589L92.1788 172.717V172.419L92.264 172.547L87.2143 170.8V168.115L95.1404 171.29V173.847ZM107.592 171.482H104.886C104.871 171.315 104.813 171.171 104.71 171.05C104.607 170.929 104.474 170.837 104.31 170.773C104.151 170.706 103.973 170.672 103.778 170.672C103.526 170.672 103.309 170.718 103.128 170.81C102.947 170.903 102.858 171.034 102.862 171.205C102.858 171.325 102.909 171.437 103.016 171.54C103.126 171.643 103.337 171.723 103.65 171.78L105.312 172.078C106.15 172.231 106.773 172.488 107.181 172.85C107.593 173.209 107.801 173.69 107.805 174.294C107.801 174.876 107.627 175.382 107.283 175.812C106.942 176.238 106.475 176.569 105.882 176.803C105.292 177.034 104.619 177.149 103.863 177.149C102.613 177.149 101.635 176.893 100.928 176.382C100.225 175.871 99.8324 175.196 99.7507 174.358H102.67C102.709 174.617 102.837 174.818 103.053 174.96C103.273 175.098 103.55 175.168 103.884 175.168C104.154 175.168 104.376 175.121 104.55 175.029C104.728 174.937 104.818 174.805 104.822 174.635C104.818 174.479 104.74 174.354 104.587 174.262C104.438 174.17 104.204 174.095 103.884 174.038L102.435 173.783C101.601 173.637 100.976 173.36 100.56 172.952C100.145 172.543 99.9389 172.018 99.9425 171.375C99.9389 170.807 100.088 170.326 100.39 169.931C100.695 169.534 101.13 169.232 101.695 169.026C102.263 168.816 102.936 168.712 103.714 168.712C104.896 168.712 105.828 168.957 106.51 169.447C107.196 169.937 107.556 170.615 107.592 171.482ZM112.873 177.149C111.985 177.149 111.225 176.973 110.593 176.622C109.961 176.267 109.476 175.773 109.139 175.141C108.802 174.505 108.633 173.768 108.633 172.93C108.633 172.092 108.802 171.357 109.139 170.725C109.476 170.089 109.961 169.596 110.593 169.244C111.225 168.889 111.985 168.712 112.873 168.712C113.761 168.712 114.521 168.889 115.153 169.244C115.785 169.596 116.27 170.089 116.607 170.725C116.944 171.357 117.113 172.092 117.113 172.93C117.113 173.768 116.944 174.505 116.607 175.141C116.27 175.773 115.785 176.267 115.153 176.622C114.521 176.973 113.761 177.149 112.873 177.149ZM112.894 174.976C113.143 174.976 113.358 174.892 113.539 174.725C113.72 174.559 113.86 174.321 113.96 174.012C114.059 173.703 114.109 173.335 114.109 172.909C114.109 172.479 114.059 172.112 113.96 171.806C113.86 171.498 113.72 171.26 113.539 171.093C113.358 170.926 113.143 170.842 112.894 170.842C112.632 170.842 112.406 170.926 112.218 171.093C112.03 171.26 111.886 171.498 111.786 171.806C111.687 172.112 111.637 172.479 111.637 172.909C111.637 173.335 111.687 173.703 111.786 174.012C111.886 174.321 112.03 174.559 112.218 174.725C112.406 174.892 112.632 174.976 112.894 174.976ZM118.306 177V168.818H121.097V170.374H121.183C121.353 169.862 121.644 169.457 122.056 169.159C122.468 168.861 122.958 168.712 123.526 168.712C124.102 168.712 124.597 168.864 125.013 169.17C125.428 169.472 125.678 169.873 125.764 170.374H125.849C125.987 169.873 126.282 169.472 126.733 169.17C127.184 168.864 127.713 168.712 128.32 168.712C129.105 168.712 129.741 168.964 130.227 169.468C130.718 169.972 130.963 170.643 130.963 171.482V177H128.022V172.227C128.022 171.869 127.932 171.588 127.751 171.386C127.569 171.18 127.326 171.077 127.021 171.077C126.719 171.077 126.479 171.18 126.302 171.386C126.128 171.588 126.041 171.869 126.041 172.227V177H123.228V172.227C123.228 171.869 123.138 171.588 122.956 171.386C122.775 171.18 122.532 171.077 122.227 171.077C122.024 171.077 121.85 171.123 121.705 171.215C121.559 171.308 121.445 171.441 121.364 171.615C121.286 171.785 121.247 171.989 121.247 172.227V177H118.306ZM136.333 177.149C135.46 177.149 134.707 176.982 134.075 176.648C133.446 176.311 132.961 175.828 132.62 175.2C132.283 174.567 132.114 173.811 132.114 172.93C132.114 172.085 132.285 171.347 132.626 170.714C132.967 170.082 133.448 169.591 134.069 169.239C134.691 168.887 135.424 168.712 136.269 168.712C136.887 168.712 137.446 168.808 137.947 168.999C138.448 169.191 138.876 169.47 139.231 169.836C139.586 170.198 139.859 170.638 140.051 171.157C140.243 171.675 140.339 172.259 140.339 172.909V173.591H133.031V171.972H137.633C137.629 171.737 137.569 171.531 137.452 171.354C137.338 171.173 137.184 171.032 136.988 170.933C136.797 170.83 136.578 170.778 136.333 170.778C136.095 170.778 135.877 170.83 135.678 170.933C135.479 171.032 135.319 171.171 135.199 171.348C135.081 171.526 135.019 171.734 135.012 171.972V173.719C135.012 173.982 135.067 174.216 135.177 174.422C135.287 174.628 135.445 174.789 135.651 174.907C135.857 175.024 136.106 175.082 136.397 175.082C136.6 175.082 136.784 175.054 136.951 174.997C137.122 174.94 137.267 174.859 137.388 174.752C137.509 174.642 137.597 174.511 137.654 174.358H140.339C140.247 174.926 140.028 175.42 139.684 175.839C139.339 176.254 138.883 176.577 138.315 176.808C137.75 177.036 137.09 177.149 136.333 177.149ZM144.527 168.818H147.467V177.277C147.467 177.994 147.316 178.555 147.015 178.96C146.716 179.365 146.297 179.651 145.757 179.818C145.218 179.985 144.587 180.068 143.866 180.068C143.76 180.068 143.662 180.066 143.574 180.063C143.481 180.059 143.38 180.054 143.27 180.047V177.874C143.341 177.881 143.403 177.886 143.456 177.89C143.506 177.893 143.558 177.895 143.611 177.895C143.962 177.895 144.202 177.84 144.33 177.73C144.461 177.623 144.527 177.451 144.527 177.213V168.818ZM145.997 167.966C145.599 167.966 145.259 167.835 144.974 167.572C144.69 167.309 144.548 166.993 144.548 166.624C144.548 166.254 144.69 165.938 144.974 165.675C145.259 165.413 145.599 165.281 145.997 165.281C146.398 165.281 146.739 165.413 147.02 165.675C147.304 165.938 147.446 166.254 147.446 166.624C147.446 166.993 147.304 167.309 147.02 167.572C146.739 167.835 146.398 167.966 145.997 167.966ZM156.444 171.482H153.738C153.724 171.315 153.665 171.171 153.562 171.05C153.459 170.929 153.326 170.837 153.163 170.773C153.003 170.706 152.826 170.672 152.63 170.672C152.378 170.672 152.161 170.718 151.98 170.81C151.799 170.903 151.71 171.034 151.714 171.205C151.71 171.325 151.762 171.437 151.869 171.54C151.979 171.643 152.19 171.723 152.502 171.78L154.164 172.078C155.002 172.231 155.626 172.488 156.034 172.85C156.446 173.209 156.654 173.69 156.657 174.294C156.654 174.876 156.48 175.382 156.135 175.812C155.794 176.238 155.327 176.569 154.734 176.803C154.145 177.034 153.472 177.149 152.715 177.149C151.465 177.149 150.487 176.893 149.78 176.382C149.077 175.871 148.685 175.196 148.603 174.358H151.522C151.561 174.617 151.689 174.818 151.906 174.96C152.126 175.098 152.403 175.168 152.737 175.168C153.007 175.168 153.229 175.121 153.403 175.029C153.58 174.937 153.671 174.805 153.674 174.635C153.671 174.479 153.593 174.354 153.44 174.262C153.291 174.17 153.056 174.095 152.737 174.038L151.288 173.783C150.453 173.637 149.828 173.36 149.413 172.952C148.997 172.543 148.791 172.018 148.795 171.375C148.791 170.807 148.941 170.326 149.242 169.931C149.548 169.534 149.983 169.232 150.547 169.026C151.116 168.816 151.789 168.712 152.566 168.712C153.749 168.712 154.681 168.957 155.363 169.447C156.048 169.937 156.409 170.615 156.444 171.482ZM164.714 177.149C163.826 177.149 163.066 176.973 162.434 176.622C161.802 176.267 161.317 175.773 160.98 175.141C160.642 174.505 160.474 173.768 160.474 172.93C160.474 172.092 160.642 171.357 160.98 170.725C161.317 170.089 161.802 169.596 162.434 169.244C163.066 168.889 163.826 168.712 164.714 168.712C165.516 168.712 166.211 168.857 166.797 169.148C167.386 169.436 167.842 169.844 168.166 170.374C168.489 170.899 168.652 171.517 168.656 172.227H165.928C165.889 171.798 165.765 171.471 165.555 171.247C165.35 171.02 165.083 170.906 164.756 170.906C164.501 170.906 164.277 170.981 164.085 171.13C163.894 171.276 163.744 171.498 163.638 171.796C163.531 172.091 163.478 172.462 163.478 172.909C163.478 173.357 163.531 173.729 163.638 174.028C163.744 174.322 163.894 174.544 164.085 174.694C164.277 174.839 164.501 174.912 164.756 174.912C164.973 174.912 165.165 174.862 165.332 174.763C165.499 174.66 165.634 174.511 165.737 174.315C165.843 174.116 165.907 173.875 165.928 173.591H168.656C168.645 174.312 168.48 174.94 168.16 175.477C167.841 176.009 167.388 176.421 166.802 176.712C166.22 177.004 165.524 177.149 164.714 177.149ZM173.811 177.149C172.923 177.149 172.163 176.973 171.531 176.622C170.899 176.267 170.414 175.773 170.077 175.141C169.739 174.505 169.57 173.768 169.57 172.93C169.57 172.092 169.739 171.357 170.077 170.725C170.414 170.089 170.899 169.596 171.531 169.244C172.163 168.889 172.923 168.712 173.811 168.712C174.698 168.712 175.458 168.889 176.09 169.244C176.722 169.596 177.207 170.089 177.545 170.725C177.882 171.357 178.051 172.092 178.051 172.93C178.051 173.768 177.882 174.505 177.545 175.141C177.207 175.773 176.722 176.267 176.09 176.622C175.458 176.973 174.698 177.149 173.811 177.149ZM173.832 174.976C174.08 174.976 174.295 174.892 174.476 174.725C174.657 174.559 174.798 174.321 174.897 174.012C174.997 173.703 175.046 173.335 175.046 172.909C175.046 172.479 174.997 172.112 174.897 171.806C174.798 171.498 174.657 171.26 174.476 171.093C174.295 170.926 174.08 170.842 173.832 170.842C173.569 170.842 173.344 170.926 173.155 171.093C172.967 171.26 172.823 171.498 172.724 171.806C172.624 172.112 172.575 172.479 172.575 172.909C172.575 173.335 172.624 173.703 172.724 174.012C172.823 174.321 172.967 174.559 173.155 174.725C173.344 174.892 173.569 174.976 173.832 174.976ZM182.205 177.107C181.623 177.107 181.087 176.954 180.597 176.648C180.11 176.343 179.72 175.88 179.425 175.258C179.134 174.637 178.988 173.854 178.988 172.909C178.988 171.922 179.141 171.119 179.446 170.501C179.755 169.884 180.153 169.431 180.639 169.143C181.129 168.855 181.644 168.712 182.184 168.712C182.589 168.712 182.944 168.783 183.249 168.925C183.555 169.063 183.811 169.25 184.017 169.484C184.222 169.715 184.379 169.969 184.485 170.246H184.528V166.091H187.468V177H184.549V175.658H184.485C184.372 175.935 184.208 176.183 183.995 176.403C183.786 176.62 183.53 176.792 183.228 176.92C182.93 177.044 182.589 177.107 182.205 177.107ZM183.292 174.848C183.562 174.848 183.793 174.77 183.985 174.614C184.18 174.454 184.329 174.23 184.432 173.942C184.539 173.651 184.592 173.307 184.592 172.909C184.592 172.504 184.539 172.158 184.432 171.87C184.329 171.579 184.18 171.357 183.985 171.205C183.793 171.048 183.562 170.97 183.292 170.97C183.022 170.97 182.791 171.048 182.6 171.205C182.411 171.357 182.266 171.579 182.163 171.87C182.063 172.158 182.014 172.504 182.014 172.909C182.014 173.314 182.063 173.662 182.163 173.953C182.266 174.241 182.411 174.463 182.6 174.619C182.791 174.772 183.022 174.848 183.292 174.848ZM192.832 177.149C191.959 177.149 191.206 176.982 190.574 176.648C189.945 176.311 189.46 175.828 189.119 175.2C188.782 174.567 188.613 173.811 188.613 172.93C188.613 172.085 188.784 171.347 189.125 170.714C189.466 170.082 189.947 169.591 190.568 169.239C191.19 168.887 191.923 168.712 192.768 168.712C193.386 168.712 193.945 168.808 194.446 168.999C194.947 169.191 195.375 169.47 195.73 169.836C196.085 170.198 196.358 170.638 196.55 171.157C196.742 171.675 196.838 172.259 196.838 172.909V173.591H189.53V171.972H194.132C194.128 171.737 194.068 171.531 193.951 171.354C193.837 171.173 193.683 171.032 193.487 170.933C193.296 170.83 193.077 170.778 192.832 170.778C192.594 170.778 192.376 170.83 192.177 170.933C191.978 171.032 191.818 171.171 191.698 171.348C191.58 171.526 191.518 171.734 191.511 171.972V173.719C191.511 173.982 191.566 174.216 191.676 174.422C191.786 174.628 191.944 174.789 192.15 174.907C192.356 175.024 192.605 175.082 192.896 175.082C193.099 175.082 193.283 175.054 193.45 174.997C193.621 174.94 193.766 174.859 193.887 174.752C194.008 174.642 194.096 174.511 194.153 174.358H196.838C196.746 174.926 196.527 175.42 196.183 175.839C195.838 176.254 195.382 176.577 194.814 176.808C194.249 177.036 193.589 177.149 192.832 177.149ZM201.516 173.847V171.29L209.442 168.115V170.8L204.392 172.547L204.478 172.419V172.717L204.392 172.589L209.442 174.337V177.021L201.516 173.847ZM216.774 165.58L213.259 178.641H210.766L214.282 165.58H216.774ZM225.087 171.482H222.381C222.367 171.315 222.308 171.171 222.205 171.05C222.102 170.929 221.969 170.837 221.805 170.773C221.646 170.706 221.468 170.672 221.273 170.672C221.021 170.672 220.804 170.718 220.623 170.81C220.442 170.903 220.353 171.034 220.357 171.205C220.353 171.325 220.405 171.437 220.511 171.54C220.621 171.643 220.832 171.723 221.145 171.78L222.807 172.078C223.645 172.231 224.268 172.488 224.677 172.85C225.089 173.209 225.296 173.69 225.3 174.294C225.296 174.876 225.122 175.382 224.778 175.812C224.437 176.238 223.97 176.569 223.377 176.803C222.787 177.034 222.114 177.149 221.358 177.149C220.108 177.149 219.13 176.893 218.423 176.382C217.72 175.871 217.328 175.196 217.246 174.358H220.165C220.204 174.617 220.332 174.818 220.548 174.96C220.769 175.098 221.046 175.168 221.379 175.168C221.649 175.168 221.871 175.121 222.045 175.029C222.223 174.937 222.313 174.805 222.317 174.635C222.313 174.479 222.235 174.354 222.082 174.262C221.933 174.17 221.699 174.095 221.379 174.038L219.93 173.783C219.096 173.637 218.471 173.36 218.055 172.952C217.64 172.543 217.434 172.018 217.438 171.375C217.434 170.807 217.583 170.326 217.885 169.931C218.19 169.534 218.625 169.232 219.19 169.026C219.758 168.816 220.431 168.712 221.209 168.712C222.391 168.712 223.324 168.957 224.005 169.447C224.691 169.937 225.051 170.615 225.087 171.482ZM230.368 177.149C229.48 177.149 228.72 176.973 228.088 176.622C227.456 176.267 226.972 175.773 226.634 175.141C226.297 174.505 226.128 173.768 226.128 172.93C226.128 172.092 226.297 171.357 226.634 170.725C226.972 170.089 227.456 169.596 228.088 169.244C228.72 168.889 229.48 168.712 230.368 168.712C231.171 168.712 231.865 168.857 232.451 169.148C233.04 169.436 233.497 169.844 233.82 170.374C234.143 170.899 234.306 171.517 234.31 172.227H231.583C231.544 171.798 231.419 171.471 231.21 171.247C231.004 171.02 230.737 170.906 230.411 170.906C230.155 170.906 229.931 170.981 229.74 171.13C229.548 171.276 229.399 171.498 229.292 171.796C229.186 172.091 229.132 172.462 229.132 172.909C229.132 173.357 229.186 173.729 229.292 174.028C229.399 174.322 229.548 174.544 229.74 174.694C229.931 174.839 230.155 174.912 230.411 174.912C230.627 174.912 230.819 174.862 230.986 174.763C231.153 174.66 231.288 174.511 231.391 174.315C231.497 174.116 231.561 173.875 231.583 173.591H234.31C234.299 174.312 234.134 174.94 233.815 175.477C233.495 176.009 233.042 176.421 232.456 176.712C231.874 177.004 231.178 177.149 230.368 177.149ZM235.523 177V168.818H238.378V170.374H238.463C238.613 169.798 238.849 169.377 239.172 169.111C239.499 168.845 239.88 168.712 240.317 168.712C240.445 168.712 240.571 168.722 240.695 168.744C240.823 168.761 240.946 168.788 241.063 168.824V171.332C240.917 171.283 240.738 171.245 240.525 171.221C240.312 171.196 240.129 171.183 239.976 171.183C239.689 171.183 239.429 171.249 239.199 171.38C238.971 171.508 238.792 171.689 238.661 171.924C238.529 172.154 238.463 172.426 238.463 172.739V177H235.523ZM242.027 177V168.818H244.967V177H242.027ZM243.497 167.966C243.099 167.966 242.759 167.835 242.474 167.572C242.19 167.309 242.048 166.993 242.048 166.624C242.048 166.254 242.19 165.938 242.474 165.675C242.759 165.413 243.099 165.281 243.497 165.281C243.898 165.281 244.239 165.413 244.52 165.675C244.804 165.938 244.946 166.254 244.946 166.624C244.946 166.993 244.804 167.309 244.52 167.572C244.239 167.835 243.898 167.966 243.497 167.966ZM246.465 180.068V168.818H249.384V170.246H249.448C249.555 169.969 249.711 169.715 249.917 169.484C250.123 169.25 250.379 169.063 250.684 168.925C250.99 168.783 251.345 168.712 251.75 168.712C252.289 168.712 252.802 168.855 253.289 169.143C253.779 169.431 254.177 169.884 254.482 170.501C254.791 171.119 254.946 171.922 254.946 172.909C254.946 173.854 254.798 174.637 254.503 175.258C254.212 175.88 253.822 176.343 253.332 176.648C252.845 176.954 252.311 177.107 251.728 177.107C251.345 177.107 251.002 177.044 250.7 176.92C250.402 176.792 250.146 176.62 249.933 176.403C249.724 176.183 249.562 175.935 249.448 175.658H249.406V180.068H246.465ZM249.342 172.909C249.342 173.307 249.393 173.651 249.496 173.942C249.603 174.23 249.752 174.454 249.944 174.614C250.139 174.77 250.372 174.848 250.642 174.848C250.911 174.848 251.141 174.772 251.329 174.619C251.521 174.463 251.666 174.241 251.766 173.953C251.869 173.662 251.92 173.314 251.92 172.909C251.92 172.504 251.869 172.158 251.766 171.87C251.666 171.579 251.521 171.357 251.329 171.205C251.141 171.048 250.911 170.97 250.642 170.97C250.372 170.97 250.139 171.048 249.944 171.205C249.752 171.357 249.603 171.579 249.496 171.87C249.393 172.158 249.342 172.504 249.342 172.909ZM261.057 168.818V170.949H255.666V168.818H261.057ZM256.71 166.858H259.65V174.369C259.65 174.482 259.67 174.578 259.709 174.656C259.748 174.731 259.808 174.788 259.89 174.827C259.972 174.862 260.077 174.88 260.204 174.88C260.293 174.88 260.396 174.869 260.513 174.848C260.634 174.827 260.723 174.809 260.78 174.795L261.206 176.862C261.074 176.901 260.886 176.949 260.641 177.005C260.4 177.062 260.112 177.099 259.778 177.117C259.104 177.153 258.537 177.083 258.079 176.909C257.621 176.732 257.276 176.453 257.046 176.073C256.815 175.693 256.703 175.217 256.71 174.646V166.858ZM270.673 173.847L262.747 177.021V174.337L267.796 172.589L267.711 172.717V172.419L267.796 172.547L262.747 170.8V168.115L270.673 171.29V173.847ZM23.2006 191.847V189.29L31.1268 186.115V188.8L26.0771 190.547L26.1623 190.419V190.717L26.0771 190.589L31.1268 192.337V195.021L23.2006 191.847ZM38.459 183.58L34.9434 196.641H32.4505L35.9661 183.58H38.459ZM39.25 195V184.091H42.1903V188.246H42.233C42.3395 187.969 42.4957 187.715 42.7017 187.484C42.9077 187.25 43.1634 187.063 43.4688 186.925C43.7741 186.783 44.1293 186.712 44.5341 186.712C45.0739 186.712 45.587 186.855 46.0735 187.143C46.5636 187.431 46.9613 187.884 47.2667 188.501C47.5756 189.119 47.7301 189.922 47.7301 190.909C47.7301 191.854 47.5827 192.637 47.288 193.258C46.9968 193.88 46.6062 194.343 46.1161 194.648C45.6296 194.954 45.0952 195.107 44.5128 195.107C44.1293 195.107 43.7866 195.044 43.4847 194.92C43.1864 194.792 42.9308 194.62 42.7177 194.403C42.5082 194.183 42.3466 193.935 42.233 193.658H42.169V195H39.25ZM42.1264 190.909C42.1264 191.307 42.1779 191.651 42.2809 191.942C42.3874 192.23 42.5366 192.454 42.7283 192.614C42.9237 192.77 43.1563 192.848 43.4261 192.848C43.696 192.848 43.9251 192.772 44.1133 192.619C44.305 192.463 44.4506 192.241 44.5501 191.953C44.6531 191.662 44.7045 191.314 44.7045 190.909C44.7045 190.504 44.6531 190.158 44.5501 189.87C44.4506 189.579 44.305 189.357 44.1133 189.205C43.9251 189.048 43.696 188.97 43.4261 188.97C43.1563 188.97 42.9237 189.048 42.7283 189.205C42.5366 189.357 42.3874 189.579 42.2809 189.87C42.1779 190.158 42.1264 190.504 42.1264 190.909ZM52.9023 195.149C52.0146 195.149 51.2546 194.973 50.6225 194.622C49.9904 194.267 49.5057 193.773 49.1683 193.141C48.831 192.505 48.6623 191.768 48.6623 190.93C48.6623 190.092 48.831 189.357 49.1683 188.725C49.5057 188.089 49.9904 187.596 50.6225 187.244C51.2546 186.889 52.0146 186.712 52.9023 186.712C53.7901 186.712 54.5501 186.889 55.1822 187.244C55.8143 187.596 56.299 188.089 56.6364 188.725C56.9737 189.357 57.1424 190.092 57.1424 190.93C57.1424 191.768 56.9737 192.505 56.6364 193.141C56.299 193.773 55.8143 194.267 55.1822 194.622C54.5501 194.973 53.7901 195.149 52.9023 195.149ZM52.9237 192.976C53.1722 192.976 53.3871 192.892 53.5682 192.725C53.7493 192.559 53.8896 192.321 53.989 192.012C54.0884 191.703 54.1381 191.335 54.1381 190.909C54.1381 190.479 54.0884 190.112 53.989 189.806C53.8896 189.498 53.7493 189.26 53.5682 189.093C53.3871 188.926 53.1722 188.842 52.9237 188.842C52.6609 188.842 52.4354 188.926 52.2472 189.093C52.0589 189.26 51.9151 189.498 51.8157 189.806C51.7163 190.112 51.6665 190.479 51.6665 190.909C51.6665 191.335 51.7163 191.703 51.8157 192.012C51.9151 192.321 52.0589 192.559 52.2472 192.725C52.4354 192.892 52.6609 192.976 52.9237 192.976ZM61.2972 195.107C60.7148 195.107 60.1786 194.954 59.6886 194.648C59.2021 194.343 58.8114 193.88 58.5167 193.258C58.2255 192.637 58.0799 191.854 58.0799 190.909C58.0799 189.922 58.2326 189.119 58.538 188.501C58.8469 187.884 59.2447 187.431 59.7312 187.143C60.2212 186.855 60.7362 186.712 61.2759 186.712C61.6808 186.712 62.0359 186.783 62.3413 186.925C62.6467 187.063 62.9023 187.25 63.1083 187.484C63.3143 187.715 63.4705 187.969 63.5771 188.246H63.6197V184.091H66.56V195H63.641V193.658H63.5771C63.4634 193.935 63.3001 194.183 63.087 194.403C62.8775 194.62 62.6218 194.792 62.32 194.92C62.0217 195.044 61.6808 195.107 61.2972 195.107ZM62.3839 192.848C62.6538 192.848 62.8846 192.77 63.0763 192.614C63.2717 192.454 63.4208 192.23 63.5238 191.942C63.6303 191.651 63.6836 191.307 63.6836 190.909C63.6836 190.504 63.6303 190.158 63.5238 189.87C63.4208 189.579 63.2717 189.357 63.0763 189.205C62.8846 189.048 62.6538 188.97 62.3839 188.97C62.114 188.97 61.8832 189.048 61.6914 189.205C61.5032 189.357 61.3576 189.579 61.2546 189.87C61.1552 190.158 61.1055 190.504 61.1055 190.909C61.1055 191.314 61.1552 191.662 61.2546 191.953C61.3576 192.241 61.5032 192.463 61.6914 192.619C61.8832 192.772 62.114 192.848 62.3839 192.848ZM69.7933 198.068C69.456 198.068 69.1346 198.042 68.8292 197.988C68.5238 197.939 68.2557 197.869 68.0249 197.781L68.6641 195.692C68.9055 195.778 69.1257 195.833 69.3246 195.858C69.527 195.882 69.6992 195.868 69.8413 195.815C69.9869 195.762 70.0916 195.661 70.1555 195.511L70.2195 195.362L67.343 186.818H70.4112L71.7322 192.486H71.8175L73.1598 186.818H76.2493L73.2663 195.682C73.1172 196.133 72.9006 196.538 72.6165 196.896C72.3359 197.259 71.9666 197.544 71.5085 197.754C71.0504 197.963 70.4787 198.068 69.7933 198.068ZM85.5018 191.847L77.5756 195.021V192.337L82.6254 190.589L82.5401 190.717V190.419L82.6254 190.547L77.5756 188.8V186.115L85.5018 189.29V191.847ZM14.2358 227.847V225.29L22.1619 222.115V224.8L17.1122 226.547L17.1974 226.419V226.717L17.1122 226.589L22.1619 228.337V231.021L14.2358 227.847ZM29.4941 219.58L25.9785 232.641H23.4856L27.0012 219.58H29.4941ZM33.2681 226.398V231H30.3278V220.091H33.1616V224.374H33.2468C33.4315 223.852 33.7386 223.445 34.1683 223.154C34.598 222.859 35.1147 222.712 35.7184 222.712C36.2972 222.712 36.7997 222.843 37.2259 223.106C37.6555 223.369 37.9876 223.731 38.2219 224.192C38.4599 224.654 38.5771 225.183 38.5735 225.78V231H35.6332V226.398C35.6367 225.993 35.5355 225.675 35.3295 225.444C35.1271 225.213 34.8377 225.098 34.4613 225.098C34.2234 225.098 34.0138 225.151 33.8327 225.258C33.6552 225.361 33.5167 225.51 33.4173 225.705C33.3214 225.897 33.2717 226.128 33.2681 226.398ZM44.9043 222.818V224.949H39.5137V222.818H44.9043ZM40.5577 220.858H43.498V228.369C43.498 228.482 43.5176 228.578 43.5566 228.656C43.5957 228.731 43.6561 228.788 43.7377 228.827C43.8194 228.862 43.9242 228.88 44.052 228.88C44.1408 228.88 44.2438 228.869 44.361 228.848C44.4817 228.827 44.5705 228.809 44.6273 228.795L45.0534 230.862C44.9221 230.901 44.7338 230.949 44.4888 231.005C44.2473 231.062 43.9597 231.099 43.6259 231.117C42.9512 231.153 42.3848 231.083 41.9267 230.909C41.4686 230.732 41.1241 230.453 40.8933 230.073C40.6625 229.693 40.5506 229.217 40.5577 228.646V220.858ZM46.1041 231V222.818H48.8953V224.374H48.9806C49.151 223.862 49.4422 223.457 49.8541 223.159C50.2661 222.861 50.7561 222.712 51.3243 222.712C51.8996 222.712 52.395 222.864 52.8105 223.17C53.2259 223.472 53.4763 223.873 53.5615 224.374H53.6468C53.7852 223.873 54.08 223.472 54.531 223.17C54.982 222.864 55.5111 222.712 56.1183 222.712C56.9031 222.712 57.5388 222.964 58.0253 223.468C58.5154 223.972 58.7604 224.643 58.7604 225.482V231H55.82V226.227C55.82 225.869 55.7295 225.588 55.5484 225.386C55.3673 225.18 55.124 225.077 54.8186 225.077C54.5168 225.077 54.2771 225.18 54.0995 225.386C53.9255 225.588 53.8385 225.869 53.8385 226.227V231H51.026V226.227C51.026 225.869 50.9355 225.588 50.7544 225.386C50.5732 225.18 50.33 225.077 50.0246 225.077C49.8222 225.077 49.6482 225.123 49.5026 225.215C49.357 225.308 49.2433 225.441 49.1617 225.615C49.0835 225.785 49.0445 225.989 49.0445 226.227V231H46.1041ZM63.1509 220.091V231H60.2106V220.091H63.1509ZM73.0653 227.847L65.1391 231.021V228.337L70.1888 226.589L70.1036 226.717V226.419L70.1888 226.547L65.1391 224.8V222.115L73.0653 225.29V227.847ZM14.2358 425.847V423.29L22.1619 420.115V422.8L17.1122 424.547L17.1974 424.419V424.717L17.1122 424.589L22.1619 426.337V429.021L14.2358 425.847ZM29.4941 417.58L25.9785 430.641H23.4856L27.0012 417.58H29.4941ZM33.2681 424.398V429H30.3278V418.091H33.1616V422.374H33.2468C33.4315 421.852 33.7386 421.445 34.1683 421.154C34.598 420.859 35.1147 420.712 35.7184 420.712C36.2972 420.712 36.7997 420.843 37.2259 421.106C37.6555 421.369 37.9876 421.731 38.2219 422.192C38.4599 422.654 38.5771 423.183 38.5735 423.78V429H35.6332V424.398C35.6367 423.993 35.5355 423.675 35.3295 423.444C35.1271 423.213 34.8377 423.098 34.4613 423.098C34.2234 423.098 34.0138 423.151 33.8327 423.258C33.6552 423.361 33.5167 423.51 33.4173 423.705C33.3214 423.897 33.2717 424.128 33.2681 424.398ZM44.9043 420.818V422.949H39.5137V420.818H44.9043ZM40.5577 418.858H43.498V426.369C43.498 426.482 43.5176 426.578 43.5566 426.656C43.5957 426.731 43.6561 426.788 43.7377 426.827C43.8194 426.862 43.9242 426.88 44.052 426.88C44.1408 426.88 44.2438 426.869 44.361 426.848C44.4817 426.827 44.5705 426.809 44.6273 426.795L45.0534 428.862C44.9221 428.901 44.7338 428.949 44.4888 429.005C44.2473 429.062 43.9597 429.099 43.6259 429.117C42.9512 429.153 42.3848 429.083 41.9267 428.909C41.4686 428.732 41.1241 428.453 40.8933 428.073C40.6625 427.693 40.5506 427.217 40.5577 426.646V418.858ZM46.1041 429V420.818H48.8953V422.374H48.9806C49.151 421.862 49.4422 421.457 49.8541 421.159C50.2661 420.861 50.7561 420.712 51.3243 420.712C51.8996 420.712 52.395 420.864 52.8105 421.17C53.2259 421.472 53.4763 421.873 53.5615 422.374H53.6468C53.7852 421.873 54.08 421.472 54.531 421.17C54.982 420.864 55.5111 420.712 56.1183 420.712C56.9031 420.712 57.5388 420.964 58.0253 421.468C58.5154 421.972 58.7604 422.643 58.7604 423.482V429H55.82V424.227C55.82 423.869 55.7295 423.588 55.5484 423.386C55.3673 423.18 55.124 423.077 54.8186 423.077C54.5168 423.077 54.2771 423.18 54.0995 423.386C53.9255 423.588 53.8385 423.869 53.8385 424.227V429H51.026V424.227C51.026 423.869 50.9355 423.588 50.7544 423.386C50.5732 423.18 50.33 423.077 50.0246 423.077C49.8222 423.077 49.6482 423.123 49.5026 423.215C49.357 423.308 49.2433 423.441 49.1617 423.615C49.0835 423.785 49.0445 423.989 49.0445 424.227V429H46.1041ZM63.1509 418.091V429H60.2106V418.091H63.1509ZM73.0653 425.847L65.1391 429.021V426.337L70.1888 424.589L70.1036 424.717V424.419L70.1888 424.547L65.1391 422.8V420.115L73.0653 423.29V425.847Z" fill="black"/>
</g>
<defs>
<clipPath id="clip0_1_2">
<rect width="300" height="300" fill="white"/>
</clipPath>
</defs>
</svg>
