<svg width="133" height="114" viewBox="0 0 133 114" fill="none" xmlns="http://www.w3.org/2000/svg">
<path d="M86.0568 91V82.2727H89.0057C89.6903 82.2727 90.25 82.3963 90.6847 82.6435C91.1222 82.8878 91.446 83.2188 91.6562 83.6364C91.8665 84.054 91.9716 84.5199 91.9716 85.0341C91.9716 85.5483 91.8665 86.0156 91.6562 86.4361C91.4489 86.8565 91.1278 87.1918 90.6932 87.4418C90.2585 87.6889 89.7017 87.8125 89.0227 87.8125H86.9091V86.875H88.9886C89.4574 86.875 89.8338 86.794 90.1179 86.6321C90.402 86.4702 90.608 86.2514 90.7358 85.9759C90.8665 85.6974 90.9318 85.3835 90.9318 85.0341C90.9318 84.6847 90.8665 84.3722 90.7358 84.0966C90.608 83.821 90.4006 83.6051 90.1136 83.4489C89.8267 83.2898 89.446 83.2102 88.9716 83.2102H87.1136V91H86.0568ZM93.5376 91V84.4545H94.5092V85.4432H94.5774C94.6967 85.1193 94.9126 84.8565 95.2251 84.6548C95.5376 84.4531 95.8899 84.3523 96.282 84.3523C96.3558 84.3523 96.4482 84.3537 96.5589 84.3565C96.6697 84.3594 96.7536 84.3636 96.8104 84.3693V85.392C96.7763 85.3835 96.6982 85.3707 96.576 85.3537C96.4567 85.3338 96.3303 85.3239 96.1967 85.3239C95.8786 85.3239 95.5945 85.3906 95.3445 85.5241C95.0973 85.6548 94.9013 85.8366 94.7564 86.0696C94.6143 86.2997 94.5433 86.5625 94.5433 86.858V91H93.5376ZM100.462 91.1364C99.8714 91.1364 99.353 90.9957 98.907 90.7145C98.4638 90.4332 98.1172 90.0398 97.8672 89.5341C97.62 89.0284 97.4964 88.4375 97.4964 87.7614C97.4964 87.0795 97.62 86.4844 97.8672 85.9759C98.1172 85.4673 98.4638 85.0724 98.907 84.7912C99.353 84.5099 99.8714 84.3693 100.462 84.3693C101.053 84.3693 101.57 84.5099 102.013 84.7912C102.46 85.0724 102.806 85.4673 103.053 85.9759C103.303 86.4844 103.428 87.0795 103.428 87.7614C103.428 88.4375 103.303 89.0284 103.053 89.5341C102.806 90.0398 102.46 90.4332 102.013 90.7145C101.57 90.9957 101.053 91.1364 100.462 91.1364ZM100.462 90.233C100.911 90.233 101.281 90.1179 101.57 89.8878C101.86 89.6577 102.075 89.3551 102.214 88.9801C102.353 88.6051 102.423 88.1989 102.423 87.7614C102.423 87.3239 102.353 86.9162 102.214 86.5384C102.075 86.1605 101.86 85.8551 101.57 85.6222C101.281 85.3892 100.911 85.2727 100.462 85.2727C100.013 85.2727 99.6442 85.3892 99.3544 85.6222C99.0646 85.8551 98.8501 86.1605 98.7109 86.5384C98.5717 86.9162 98.5021 87.3239 98.5021 87.7614C98.5021 88.1989 98.5717 88.6051 98.7109 88.9801C98.8501 89.3551 99.0646 89.6577 99.3544 89.8878C99.6442 90.1179 100.013 90.233 100.462 90.233ZM107.623 91.1364C107.032 91.1364 106.513 90.9957 106.067 90.7145C105.624 90.4332 105.277 90.0398 105.027 89.5341C104.78 89.0284 104.657 88.4375 104.657 87.7614C104.657 87.0795 104.78 86.4844 105.027 85.9759C105.277 85.4673 105.624 85.0724 106.067 84.7912C106.513 84.5099 107.032 84.3693 107.623 84.3693C108.213 84.3693 108.73 84.5099 109.174 84.7912C109.62 85.0724 109.966 85.4673 110.213 85.9759C110.463 86.4844 110.588 87.0795 110.588 87.7614C110.588 88.4375 110.463 89.0284 110.213 89.5341C109.966 90.0398 109.62 90.4332 109.174 90.7145C108.73 90.9957 108.213 91.1364 107.623 91.1364ZM107.623 90.233C108.071 90.233 108.441 90.1179 108.73 89.8878C109.02 89.6577 109.235 89.3551 109.374 88.9801C109.513 88.6051 109.583 88.1989 109.583 87.7614C109.583 87.3239 109.513 86.9162 109.374 86.5384C109.235 86.1605 109.02 85.8551 108.73 85.6222C108.441 85.3892 108.071 85.2727 107.623 85.2727C107.174 85.2727 106.804 85.3892 106.515 85.6222C106.225 85.8551 106.01 86.1605 105.871 86.5384C105.732 86.9162 105.662 87.3239 105.662 87.7614C105.662 88.1989 105.732 88.6051 105.871 88.9801C106.01 89.3551 106.225 89.6577 106.515 89.8878C106.804 90.1179 107.174 90.233 107.623 90.233ZM115.038 84.4545V85.3068H111.51V84.4545H115.038ZM112.567 91V83.5511C112.567 83.1761 112.655 82.8636 112.831 82.6136C113.007 82.3636 113.236 82.1761 113.517 82.0511C113.798 81.9261 114.095 81.8636 114.408 81.8636C114.655 81.8636 114.857 81.8835 115.013 81.9233C115.169 81.9631 115.286 82 115.362 82.0341L115.072 82.9034C115.021 82.8864 114.95 82.8651 114.859 82.8395C114.771 82.8139 114.655 82.8011 114.51 82.8011C114.178 82.8011 113.938 82.8849 113.79 83.0526C113.645 83.2202 113.572 83.4659 113.572 83.7898V91H112.567Z" fill="#CB2525"/>
<path d="M104 39C104 59.9748 86.775 77 65.5 77C44.225 77 27 59.9748 27 39C27 18.0252 44.225 1 65.5 1C86.775 1 104 18.0252 104 39Z" stroke="black" stroke-width="2"/>
<path d="M42.75 28H40.0568V19.2727H42.8693C43.7159 19.2727 44.4403 19.4474 45.0426 19.7969C45.6449 20.1435 46.1065 20.642 46.4276 21.2926C46.7486 21.9403 46.9091 22.7159 46.9091 23.6193C46.9091 24.5284 46.7472 25.3111 46.4233 25.9673C46.0994 26.6207 45.6278 27.1236 45.0085 27.4759C44.3892 27.8253 43.6364 28 42.75 28ZM41.1136 27.0625H42.6818C43.4034 27.0625 44.0014 26.9233 44.4759 26.6449C44.9503 26.3665 45.304 25.9702 45.5369 25.456C45.7699 24.9418 45.8864 24.3295 45.8864 23.6193C45.8864 22.9148 45.7713 22.3082 45.5412 21.7997C45.3111 21.2884 44.9673 20.8963 44.5099 20.6236C44.0526 20.348 43.483 20.2102 42.8011 20.2102H41.1136V27.0625ZM51.2898 28.1364C50.6591 28.1364 50.1151 27.9972 49.6577 27.7188C49.2031 27.4375 48.8523 27.0455 48.6051 26.5426C48.3608 26.0369 48.2386 25.4489 48.2386 24.7784C48.2386 24.108 48.3608 23.517 48.6051 23.0057C48.8523 22.4915 49.196 22.0909 49.6364 21.804C50.0795 21.5142 50.5966 21.3693 51.1875 21.3693C51.5284 21.3693 51.8651 21.4261 52.1974 21.5398C52.5298 21.6534 52.8324 21.8381 53.1051 22.0938C53.3778 22.3466 53.5952 22.6818 53.7571 23.0994C53.919 23.517 54 24.0312 54 24.642V25.0682H48.9545V24.1989H52.9773C52.9773 23.8295 52.9034 23.5 52.7557 23.2102C52.6108 22.9205 52.4034 22.6918 52.1335 22.5241C51.8665 22.3565 51.5511 22.2727 51.1875 22.2727C50.7869 22.2727 50.4403 22.3722 50.1477 22.571C49.858 22.767 49.6349 23.0227 49.4787 23.3381C49.3224 23.6534 49.2443 23.9915 49.2443 24.3523V24.9318C49.2443 25.4261 49.3295 25.8452 49.5 26.1889C49.6733 26.5298 49.9134 26.7898 50.2202 26.9688C50.527 27.1449 50.8835 27.233 51.2898 27.233C51.554 27.233 51.7926 27.196 52.0057 27.1222C52.2216 27.0455 52.4077 26.9318 52.5639 26.7812C52.7202 26.6278 52.8409 26.4375 52.9261 26.2102L53.8977 26.483C53.7955 26.8125 53.6236 27.1023 53.3821 27.3523C53.1406 27.5994 52.8423 27.7926 52.4872 27.9318C52.1321 28.0682 51.733 28.1364 51.2898 28.1364ZM58.4446 21.4545V22.3068H54.9162V21.4545H58.4446ZM55.973 28V20.5511C55.973 20.1761 56.0611 19.8636 56.2372 19.6136C56.4134 19.3636 56.642 19.1761 56.9233 19.0511C57.2045 18.9261 57.5014 18.8636 57.8139 18.8636C58.0611 18.8636 58.2628 18.8835 58.419 18.9233C58.5753 18.9631 58.6918 19 58.7685 19.0341L58.4787 19.9034C58.4276 19.8864 58.3565 19.8651 58.2656 19.8395C58.1776 19.8139 58.0611 19.8011 57.9162 19.8011C57.5838 19.8011 57.3438 19.8849 57.196 20.0526C57.0511 20.2202 56.9787 20.4659 56.9787 20.7898V28H55.973ZM59.854 28V21.4545H60.8597V28H59.854ZM60.3654 20.3636C60.1694 20.3636 60.0004 20.2969 59.8583 20.1634C59.7191 20.0298 59.6495 19.8693 59.6495 19.6818C59.6495 19.4943 59.7191 19.3338 59.8583 19.2003C60.0004 19.0668 60.1694 19 60.3654 19C60.5614 19 60.729 19.0668 60.8683 19.2003C61.0103 19.3338 61.0813 19.4943 61.0813 19.6818C61.0813 19.8693 61.0103 20.0298 60.8683 20.1634C60.729 20.2969 60.5614 20.3636 60.3654 20.3636ZM63.7074 24.0625V28H62.7017V21.4545H63.6733V22.4773H63.7585C63.9119 22.1449 64.1449 21.8778 64.4574 21.6761C64.7699 21.4716 65.1733 21.3693 65.6676 21.3693C66.1108 21.3693 66.4986 21.4602 66.831 21.642C67.1634 21.821 67.4219 22.0938 67.6065 22.4602C67.7912 22.8239 67.8835 23.2841 67.8835 23.8409V28H66.8778V23.9091C66.8778 23.3949 66.7443 22.9943 66.4773 22.7074C66.2102 22.4176 65.8438 22.2727 65.3778 22.2727C65.0568 22.2727 64.7699 22.3423 64.517 22.4815C64.267 22.6207 64.0696 22.8239 63.9247 23.0909C63.7798 23.358 63.7074 23.6818 63.7074 24.0625ZM69.7212 28V21.4545H70.7269V28H69.7212ZM70.2326 20.3636C70.0366 20.3636 69.8675 20.2969 69.7255 20.1634C69.5863 20.0298 69.5167 19.8693 69.5167 19.6818C69.5167 19.4943 69.5863 19.3338 69.7255 19.2003C69.8675 19.0668 70.0366 19 70.2326 19C70.4286 19 70.5962 19.0668 70.7354 19.2003C70.8775 19.3338 70.9485 19.4943 70.9485 19.6818C70.9485 19.8693 70.8775 20.0298 70.7354 20.1634C70.5962 20.2969 70.4286 20.3636 70.2326 20.3636ZM75.4155 21.4545V22.3068H72.0234V21.4545H75.4155ZM73.0121 19.8864H74.0178V26.125C74.0178 26.4091 74.0589 26.6222 74.1413 26.7642C74.2266 26.9034 74.3345 26.9972 74.4652 27.0455C74.5987 27.0909 74.7393 27.1136 74.8871 27.1136C74.9979 27.1136 75.0888 27.108 75.1598 27.0966C75.2308 27.0824 75.2876 27.071 75.3303 27.0625L75.5348 27.9659C75.4666 27.9915 75.3714 28.017 75.2493 28.0426C75.1271 28.071 74.9723 28.0852 74.7848 28.0852C74.5007 28.0852 74.2223 28.0241 73.9496 27.902C73.6797 27.7798 73.4553 27.5938 73.2763 27.3438C73.1001 27.0938 73.0121 26.7784 73.0121 26.3977V19.8864ZM76.9283 28V21.4545H77.9339V28H76.9283ZM77.4396 20.3636C77.2436 20.3636 77.0746 20.2969 76.9325 20.1634C76.7933 20.0298 76.7237 19.8693 76.7237 19.6818C76.7237 19.4943 76.7933 19.3338 76.9325 19.2003C77.0746 19.0668 77.2436 19 77.4396 19C77.6357 19 77.8033 19.0668 77.9425 19.2003C78.0845 19.3338 78.1555 19.4943 78.1555 19.6818C78.1555 19.8693 78.0845 20.0298 77.9425 20.1634C77.8033 20.2969 77.6357 20.3636 77.4396 20.3636ZM82.435 28.1364C81.8441 28.1364 81.3256 27.9957 80.8796 27.7145C80.4364 27.4332 80.0898 27.0398 79.8398 26.5341C79.5927 26.0284 79.4691 25.4375 79.4691 24.7614C79.4691 24.0795 79.5927 23.4844 79.8398 22.9759C80.0898 22.4673 80.4364 22.0724 80.8796 21.7912C81.3256 21.5099 81.8441 21.3693 82.435 21.3693C83.0259 21.3693 83.543 21.5099 83.9862 21.7912C84.4322 22.0724 84.7788 22.4673 85.0259 22.9759C85.2759 23.4844 85.4009 24.0795 85.4009 24.7614C85.4009 25.4375 85.2759 26.0284 85.0259 26.5341C84.7788 27.0398 84.4322 27.4332 83.9862 27.7145C83.543 27.9957 83.0259 28.1364 82.435 28.1364ZM82.435 27.233C82.8839 27.233 83.2532 27.1179 83.543 26.8878C83.8327 26.6577 84.0472 26.3551 84.1864 25.9801C84.3256 25.6051 84.3952 25.1989 84.3952 24.7614C84.3952 24.3239 84.3256 23.9162 84.1864 23.5384C84.0472 23.1605 83.8327 22.8551 83.543 22.6222C83.2532 22.3892 82.8839 22.2727 82.435 22.2727C81.9862 22.2727 81.6168 22.3892 81.3271 22.6222C81.0373 22.8551 80.8228 23.1605 80.6836 23.5384C80.5444 23.9162 80.4748 24.3239 80.4748 24.7614C80.4748 25.1989 80.5444 25.6051 80.6836 25.9801C80.8228 26.3551 81.0373 26.6577 81.3271 26.8878C81.6168 27.1179 81.9862 27.233 82.435 27.233ZM87.9418 24.0625V28H86.9361V21.4545H87.9077V22.4773H87.9929C88.1463 22.1449 88.3793 21.8778 88.6918 21.6761C89.0043 21.4716 89.4077 21.3693 89.902 21.3693C90.3452 21.3693 90.733 21.4602 91.0653 21.642C91.3977 21.821 91.6563 22.0938 91.8409 22.4602C92.0256 22.8239 92.1179 23.2841 92.1179 23.8409V28H91.1122V23.9091C91.1122 23.3949 90.9787 22.9943 90.7116 22.7074C90.4446 22.4176 90.0781 22.2727 89.6122 22.2727C89.2912 22.2727 89.0043 22.3423 88.7514 22.4815C88.5014 22.6207 88.304 22.8239 88.1591 23.0909C88.0142 23.358 87.9418 23.6818 87.9418 24.0625Z" fill="#CB2525"/>
<path d="M78 75C78 95.9748 60.775 113 39.5 113C18.225 113 1 95.9748 1 75C1 54.0252 18.225 37 39.5 37C60.775 37 78 54.0252 78 75Z" stroke="black" stroke-width="2"/>
<path d="M7.05682 90V81.2727H12.3239V82.2102H8.11364V85.1591H12.0511V86.0966H8.11364V89.0625H12.392V90H7.05682ZM14.8423 83.4545L16.4105 86.1307L17.9787 83.4545H19.1378L17.0241 86.7273L19.1378 90H17.9787L16.4105 87.4602L14.8423 90H13.6832L15.7628 86.7273L13.6832 83.4545H14.8423ZM22.4989 90.1534C22.0842 90.1534 21.7077 90.0753 21.3697 89.919C21.0316 89.7599 20.7631 89.5312 20.5643 89.233C20.3654 88.9318 20.266 88.5682 20.266 88.142C20.266 87.767 20.3398 87.4631 20.4876 87.2301C20.6353 86.9943 20.8327 86.8097 21.0799 86.6761C21.3271 86.5426 21.5998 86.4432 21.8981 86.3778C22.1992 86.3097 22.5018 86.2557 22.8058 86.2159C23.2035 86.1648 23.5259 86.1264 23.7731 86.1009C24.0231 86.0724 24.2049 86.0256 24.3185 85.9602C24.435 85.8949 24.4933 85.7812 24.4933 85.6193V85.5852C24.4933 85.1648 24.3782 84.8381 24.1481 84.6051C23.9208 84.3722 23.5756 84.2557 23.1126 84.2557C22.6325 84.2557 22.256 84.3608 21.9833 84.571C21.7106 84.7812 21.5188 85.0057 21.408 85.2443L20.4535 84.9034C20.6239 84.5057 20.8512 84.196 21.1353 83.9744C21.4222 83.75 21.7347 83.5937 22.0728 83.5057C22.4137 83.4148 22.7489 83.3693 23.0785 83.3693C23.2887 83.3693 23.5302 83.3949 23.8029 83.446C24.0785 83.4943 24.3441 83.5952 24.5998 83.7486C24.8583 83.902 25.0728 84.1335 25.2433 84.4432C25.4137 84.7528 25.4989 85.1676 25.4989 85.6875V90H24.4933V89.1136H24.4421C24.3739 89.2557 24.2603 89.4077 24.1012 89.5696C23.9421 89.7315 23.7305 89.8693 23.4663 89.983C23.2021 90.0966 22.8796 90.1534 22.4989 90.1534ZM22.6523 89.25C23.0501 89.25 23.3853 89.1719 23.658 89.0156C23.9336 88.8594 24.141 88.6577 24.2802 88.4105C24.4222 88.1634 24.4933 87.9034 24.4933 87.6307V86.7102C24.4506 86.7614 24.3569 86.8082 24.212 86.8509C24.07 86.8906 23.9052 86.9261 23.7177 86.9574C23.533 86.9858 23.3526 87.0114 23.1765 87.0341C23.0032 87.054 22.8626 87.071 22.7546 87.0852C22.4933 87.1193 22.2489 87.1747 22.0217 87.2514C21.7972 87.3253 21.6154 87.4375 21.4762 87.5881C21.3398 87.7358 21.2717 87.9375 21.2717 88.1932C21.2717 88.5426 21.4009 88.8068 21.6594 88.9858C21.9208 89.1619 22.2518 89.25 22.6523 89.25ZM27.3345 90V83.4545H28.3061V84.4773H28.3913C28.5277 84.1278 28.7479 83.8565 29.0518 83.6634C29.3558 83.4673 29.7209 83.3693 30.147 83.3693C30.5788 83.3693 30.9382 83.4673 31.2251 83.6634C31.5149 83.8565 31.7408 84.1278 31.9027 84.4773H31.9709C32.1385 84.1392 32.3899 83.8707 32.7251 83.6719C33.0604 83.4702 33.4624 83.3693 33.9311 83.3693C34.5163 83.3693 34.995 83.5526 35.3672 83.919C35.7393 84.2827 35.9254 84.8494 35.9254 85.6193V90H34.9197V85.6193C34.9197 85.1364 34.7876 84.7912 34.5234 84.5838C34.2592 84.3764 33.9482 84.2727 33.5902 84.2727C33.13 84.2727 32.7734 84.4119 32.5206 84.6903C32.2678 84.9659 32.1413 85.3153 32.1413 85.7386V90H31.1186V85.517C31.1186 85.1449 30.9979 84.8452 30.7564 84.6179C30.5149 84.3878 30.2038 84.2727 29.8232 84.2727C29.5618 84.2727 29.3175 84.3423 29.0902 84.4815C28.8658 84.6207 28.6839 84.8139 28.5447 85.0611C28.4084 85.3054 28.3402 85.5881 28.3402 85.9091V90H27.3345ZM37.7642 92.4545V83.4545H38.7358V84.4943H38.8551C38.929 84.3807 39.0313 84.2358 39.1619 84.0597C39.2955 83.8807 39.4858 83.7216 39.733 83.5824C39.983 83.4403 40.321 83.3693 40.7472 83.3693C41.2983 83.3693 41.7841 83.5071 42.2045 83.7827C42.625 84.0582 42.9531 84.4489 43.1889 84.9545C43.4247 85.4602 43.5426 86.0568 43.5426 86.7443C43.5426 87.4375 43.4247 88.0384 43.1889 88.5469C42.9531 89.0526 42.6264 89.4446 42.2088 89.723C41.7912 89.9986 41.3097 90.1364 40.7642 90.1364C40.3438 90.1364 40.0071 90.0668 39.7543 89.9276C39.5014 89.7855 39.3068 89.625 39.1705 89.446C39.0341 89.2642 38.929 89.1136 38.8551 88.9943H38.7699V92.4545H37.7642ZM38.7528 86.7273C38.7528 87.2216 38.8253 87.6577 38.9702 88.0355C39.1151 88.4105 39.3267 88.7045 39.6051 88.9176C39.8835 89.1278 40.2244 89.233 40.6278 89.233C41.0483 89.233 41.3991 89.1222 41.6804 88.9006C41.9645 88.6761 42.1776 88.375 42.3196 87.9972C42.4645 87.6165 42.5369 87.1932 42.5369 86.7273C42.5369 86.267 42.4659 85.8523 42.3239 85.483C42.1847 85.1108 41.973 84.8168 41.6889 84.6009C41.4077 84.3821 41.054 84.2727 40.6278 84.2727C40.2188 84.2727 39.875 84.3764 39.5966 84.5838C39.3182 84.7884 39.108 85.0753 38.9659 85.4446C38.8239 85.8111 38.7528 86.2386 38.7528 86.7273ZM46.0824 81.2727V90H45.0767V81.2727H46.0824ZM50.6687 90.1364C50.038 90.1364 49.494 89.9972 49.0366 89.7188C48.582 89.4375 48.2312 89.0455 47.984 88.5426C47.7397 88.0369 47.6175 87.4489 47.6175 86.7784C47.6175 86.108 47.7397 85.517 47.984 85.0057C48.2312 84.4915 48.5749 84.0909 49.0153 83.804C49.4585 83.5142 49.9755 83.3693 50.5664 83.3693C50.9073 83.3693 51.244 83.4261 51.5763 83.5398C51.9087 83.6534 52.2113 83.8381 52.484 84.0938C52.7567 84.3466 52.9741 84.6818 53.136 85.0994C53.2979 85.517 53.3789 86.0312 53.3789 86.642V87.0682H48.3335V86.1989H52.3562C52.3562 85.8295 52.2823 85.5 52.1346 85.2102C51.9897 84.9205 51.7823 84.6918 51.5124 84.5241C51.2454 84.3565 50.93 84.2727 50.5664 84.2727C50.1658 84.2727 49.8192 84.3722 49.5266 84.571C49.2369 84.767 49.0138 85.0227 48.8576 85.3381C48.7013 85.6534 48.6232 85.9915 48.6232 86.3523V86.9318C48.6232 87.4261 48.7085 87.8452 48.8789 88.1889C49.0522 88.5298 49.2923 88.7898 49.5991 88.9688C49.9059 89.1449 50.2624 89.233 50.6687 89.233C50.9329 89.233 51.1715 89.196 51.3846 89.1222C51.6005 89.0455 51.7866 88.9318 51.9428 88.7812C52.0991 88.6278 52.2198 88.4375 52.305 88.2102L53.2766 88.483C53.1744 88.8125 53.0025 89.1023 52.761 89.3523C52.5195 89.5994 52.2212 89.7926 51.8661 89.9318C51.511 90.0682 51.1119 90.1364 50.6687 90.1364Z" fill="#CB2525"/>
<path d="M132 75C132 95.9748 114.775 113 93.5 113C72.225 113 55 95.9748 55 75C55 54.0252 72.225 37 93.5 37C114.775 37 132 54.0252 132 75Z" stroke="black" stroke-width="2"/>
</svg>
