<svg width="30" height="30" viewBox="0 0 65 63" fill="none" xmlns="http://www.w3.org/2000/svg">
<path d="M59.6672 55C59.6672 55.855 59.0682 56.7766 57.7227 57.702C56.393 58.6166 54.4361 59.4602 51.9729 60.1768C47.0533 61.6079 40.2276 62.5 32.6672 62.5C25.1068 62.5 18.281 61.6079 13.3614 60.1768C10.8983 59.4602 8.94135 58.6166 7.61159 57.702C6.26611 56.7766 5.66716 55.855 5.66716 55C5.66716 54.145 6.26611 53.2234 7.61159 52.298C8.94135 51.3834 10.8983 50.5398 13.3614 49.8232C18.281 48.3921 25.1068 47.5 32.6672 47.5C40.2276 47.5 47.0533 48.3921 51.9729 49.8232C54.4361 50.5398 56.393 51.3834 57.7227 52.298C59.0682 53.2234 59.6672 54.145 59.6672 55Z" fill="#F4DE17" stroke="black"/>
<path d="M59.6672 8C59.6672 8.85504 59.0682 9.77659 57.7227 10.702C56.393 11.6166 54.4361 12.4602 51.9729 13.1768C47.0533 14.6079 40.2276 15.5 32.6672 15.5C25.1068 15.5 18.281 14.6079 13.3614 13.1768C10.8983 12.4602 8.94135 11.6166 7.61159 10.702C6.26611 9.77659 5.66716 8.85504 5.66716 8C5.66716 7.14496 6.26611 6.22341 7.61159 5.298C8.94135 4.38342 10.8983 3.53979 13.3614 2.82324C18.281 1.39208 25.1068 0.5 32.6672 0.5C40.2276 0.5 47.0533 1.39208 51.9729 2.82324C54.4361 3.53979 56.393 4.38342 57.7227 5.298C59.0682 6.22341 59.6672 7.14496 59.6672 8Z" fill="#F4DE17" stroke="black"/>
<path d="M32.1672 31L59.0139 55H5.32037L32.1672 31Z" fill="#EC2A2A" fill-opacity="0.69"/>
<path d="M32.1251 30.9944L4.52296 9.20173L60.1653 9.76827L32.1251 30.9944Z" fill="#3EE030" fill-opacity="0.58"/>
<path d="M60.1672 8L60.1672 55" stroke="black"/>
<path d="M5.16716 55V8" stroke="black"/>
</svg>
